<?xml version="1.0" encoding="UTF-8"?>
<svg version="1.1" xmlns="http://www.w3.org/2000/svg" width="500" height="217">
<path d="M0 0 C0.99 0.33 1.98 0.66 3 1 C3.75965688 15.61727655 4.07864088 30.19112811 3.9921875 44.82421875 C3.98826241 45.59047703 3.98433731 46.35673531 3.98029327 47.14621353 C3.94366725 54.2861532 3.89780267 61.42597097 3.82861328 68.56567383 C3.79089512 72.5248913 3.76794296 76.4839681 3.75430679 80.44333839 C3.74631555 81.93082533 3.73279765 83.41829429 3.71337509 84.90567589 C3.68676566 86.9707447 3.67899465 89.03512229 3.67529297 91.1003418 C3.66561493 92.26768356 3.65593689 93.43502533 3.64596558 94.63774109 C4.07670955 98.72850926 5.12644182 101.34258699 7 105 C11.80966358 108.69974121 16.20219076 109.12463004 22.1328125 109.13371277 C23.3915065 109.13797775 24.6502005 109.14224274 25.94703674 109.14663696 C27.33969119 109.14628745 28.73234562 109.14582592 30.125 109.14526367 C31.59378647 109.14825644 33.06257216 109.15165924 34.53135681 109.15544128 C38.52147205 109.16427815 42.51156584 109.1666194 46.50168991 109.16725707 C48.99837211 109.16796829 51.49504888 109.17010407 53.99172974 109.17275429 C62.71340276 109.18200995 71.43506051 109.18608931 80.15673828 109.18530273 C88.2659104 109.18470338 96.37501569 109.19522663 104.48417091 109.2110464 C111.45933149 109.22416521 118.43447037 109.22948474 125.40964317 109.22884732 C129.56942467 109.22859341 133.72914689 109.23138481 137.88891602 109.24202538 C141.80906871 109.25177843 145.7291064 109.25173667 149.64926338 109.24450874 C151.07940402 109.24347147 152.50955208 109.24577415 153.9396801 109.2518692 C162.50610981 109.28598002 170.59974871 108.72243123 179 107 C179 106.34 179 105.68 179 105 C179.66 105 180.32 105 181 105 C183.54888362 95.65804514 185.63131401 86.73331009 186 77 C187.65 76.67 189.3 76.34 191 76 C190.98952637 76.55872803 190.97905273 77.11745605 190.96826172 77.69311523 C190.92616621 80.2745293 190.90050657 82.85587076 190.875 85.4375 C190.85824219 86.31599609 190.84148437 87.19449219 190.82421875 88.09960938 C190.78179808 93.8476096 191.00811648 99.54473764 193 105 C195.0599241 106.64372339 195.0599241 106.64372339 198 107 C198.65226562 107.17917969 199.30453125 107.35835938 199.9765625 107.54296875 C207.73757323 109.58606168 214.96546168 109.47715208 222.8203125 107.984375 C224.28235107 107.70932129 224.28235107 107.70932129 225.77392578 107.42871094 C226.50853027 107.28723633 227.24313477 107.14576172 228 107 C227.98889694 105.75829544 227.97779388 104.51659088 227.96635437 103.23725891 C227.86502823 91.53956202 227.7900583 79.84195409 227.74093914 68.14391804 C227.71483749 62.12969496 227.67942808 56.11582594 227.62280273 50.10180664 C227.56850472 44.29869796 227.53858374 38.49592999 227.52561378 32.6925869 C227.51637005 30.47775088 227.49831922 28.26293367 227.47134972 26.04824257 C227.43508981 22.94752223 227.43005351 19.84821244 227.43237305 16.74731445 C227.41439667 15.83021698 227.39642029 14.91311951 227.37789917 13.9682312 C227.41438158 9.4656605 227.51569579 7.61317754 230.39094543 3.9728241 C232.56284316 2.33055405 234.48626509 1.02411422 237 0 C239 2 239 2 239.0625 5.0625 C239.041875 6.031875 239.02125 7.00125 239 8 C239.33 8.33 239.66 8.66 240 9 C240.04063832 10.66617115 240.042721 12.33388095 240 14 C240.66 14 241.32 14 242 14 C243.33333333 16 244.66666667 18 246 20 C244.66666667 22.66666667 243.33333333 25.33333333 242 28 C241.34 28 240.68 28 240 28 C238.8303702 31.5088894 238.88294304 34.63805483 238.91821289 38.28540039 C238.92127945 39.02389725 238.92434601 39.7623941 238.92750549 40.52326965 C238.9346563 42.12584072 238.94404411 43.728403 238.95540047 45.33094978 C238.97277323 47.86471767 238.98308376 50.39842266 238.99131775 52.93223572 C239.01579202 60.1359553 239.05143979 67.33958987 239.09594727 74.54321289 C239.12267579 78.94921243 239.13975315 83.35516319 239.15081596 87.76122856 C239.15703828 89.44261927 239.16705909 91.12400024 239.18089485 92.80534554 C239.20003482 95.15162537 239.20699612 97.49764696 239.21118164 99.84399414 C239.22432404 100.8921228 239.22432404 100.8921228 239.23773193 101.96142578 C239.22789648 106.77210352 239.22789648 106.77210352 237 109 C236.62875 110.8871875 236.62875 110.8871875 236.25 112.8125 C235.36124544 116.58628861 233.99790429 118.65661853 230.74609375 120.97265625 C221.76730089 126.25548069 211.47639778 127.10222877 201.4375 124.6875 C196.03263747 123.18411219 192.33808211 121.77855532 188.75 117.375 C188.22921875 116.74335938 187.7084375 116.11171875 187.171875 115.4609375 C186.78515625 114.97882813 186.3984375 114.49671875 186 114 C185.67 114.99 185.34 115.98 185 117 C179.78818009 123.87745308 172.06714436 124.77835083 164 126 C159.02385498 126.37903253 154.07999768 126.4113646 149.09106445 126.38818359 C147.65858564 126.39226187 146.22610999 126.39761071 144.79364014 126.40411377 C140.94873147 126.41764046 137.10406775 126.41255127 133.25915551 126.40297651 C129.21110964 126.39530744 125.16308282 126.40244501 121.11503601 126.40713501 C114.32429286 126.41256981 107.53364809 126.40545915 100.74291992 126.39111328 C92.91748577 126.37477136 85.09228598 126.38009561 77.26685745 126.3965925 C70.51569576 126.41024898 63.76460421 126.41210736 57.01343316 126.40427649 C52.99522227 126.3996253 48.97712123 126.39890452 44.95891762 126.40888596 C41.18219764 126.41761506 37.4057773 126.4114266 33.62908936 126.39420319 C31.60003561 126.38840996 29.57095621 126.39720139 27.54191589 126.40658569 C18.91702077 126.34735217 10.35770081 125.90513388 3 121 C2.80664062 122.08539063 2.61328125 123.17078125 2.4140625 124.2890625 C2.15127083 125.73441668 1.88823714 127.17972688 1.625 128.625 C1.49867188 129.33785156 1.37234375 130.05070313 1.2421875 130.78515625 C0.04014181 137.33630524 -1.00638999 142.31849061 -6 147 C-7.23512079 149.13309192 -7.23512079 149.13309192 -8 151 C-8.99 151 -9.98 151 -11 151 C-11 151.66 -11 152.32 -11 153 C-11.66 153 -12.32 153 -13 153 C-13 153.66 -13 154.32 -13 155 C-13.66 155 -14.32 155 -15 155 C-15 155.66 -15 156.32 -15 157 C-17.90600261 158.25664978 -19.79604584 159 -23 159 C-23 159.66 -23 160.32 -23 161 C-32.59871368 163.68374759 -41.58569046 164.43384335 -51.51391602 164.38818359 C-53.02344134 164.39225985 -54.53296367 164.39760758 -56.04248047 164.40411377 C-60.10238019 164.41766696 -64.1620485 164.41253927 -68.22195172 164.40297651 C-72.49375303 164.39531849 -76.76553607 164.40244229 -81.03733826 164.40713501 C-88.20648717 164.41257424 -95.37554299 164.40544871 -102.54467773 164.39111328 C-110.80575152 164.37478406 -119.06660316 164.38008464 -127.32767159 164.3965925 C-134.45164837 164.4102524 -141.5755587 164.41210529 -148.69954437 164.40427649 C-152.94080646 164.39962543 -157.18196448 164.39890388 -161.42321968 164.40888596 C-165.41168376 164.41761953 -169.39986425 164.41141853 -173.38829803 164.39420319 C-174.84262817 164.39027244 -176.29698261 164.39131302 -177.75130272 164.39799118 C-186.61810297 164.43492044 -194.50868539 163.61812979 -203 161 C-203 160.34 -203 159.68 -203 159 C-204.65 158.67 -206.3 158.34 -208 158 C-208.33 157.01 -208.66 156.02 -209 155 C-209.99 155 -210.98 155 -212 155 C-218.363617 149.38304739 -221.43013481 140.2716226 -222.17919922 132.02783203 C-222.47401658 125.9481407 -222.3864989 119.95180017 -221 114 C-221.66 113.67 -222.32 113.34 -223 113 C-225.43440242 110.47196672 -225.98161105 109.31874173 -226.1875 105.75 C-226.125625 104.8425 -226.06375 103.935 -226 103 C-226.66 103 -227.32 103 -228 103 C-228 99.04 -228 95.08 -228 91 C-227.34 91 -226.68 91 -226 91 C-226.061875 89.700625 -226.12375 88.40125 -226.1875 87.0625 C-226.17130373 81.87159569 -224.94655941 77.77370522 -223 73 C-222.41992188 71.52660156 -222.41992188 71.52660156 -221.828125 70.0234375 C-219.3975657 64.21710139 -219.3975657 64.21710139 -218 62 C-215.83984375 61.1875 -215.83984375 61.1875 -214 61 C-214.31375708 66.33387035 -215.49254203 70.43399864 -217.5625 75.375 C-220.32503214 82.25737776 -221.28240633 87.99248022 -219 95.125 C-218.67 95.74375 -218.34 96.3625 -218 97 C-217.34 97 -216.68 97 -216 97 C-215.01 94.69 -214.02 92.38 -213 90 C-211.35 90 -209.7 90 -208 90 C-207 92 -207 92 -208.1796875 95.703125 C-208.73739835 97.22148611 -209.30286311 98.73701578 -209.875 100.25 C-213.86288725 110.86615646 -216.28789332 121.958261 -212.02734375 132.93359375 C-208.69247093 139.64137976 -204.53096111 142.70493421 -197.5625 145.2734375 C-192.54294587 146.69666474 -187.71701702 147.12655192 -182.51278687 147.14044189 C-180.58275818 147.14900711 -180.58275818 147.14900711 -178.61373901 147.15774536 C-177.2000123 147.15899051 -175.78628549 147.16011565 -174.37255859 147.16113281 C-172.87392048 147.16576558 -171.37528354 147.17079085 -169.87664795 147.17617798 C-165.81434403 147.18926179 -161.75205662 147.19573933 -157.68973494 147.20018864 C-155.14714432 147.20312649 -152.60455813 147.20723268 -150.06196976 147.21169281 C-142.09350525 147.22535855 -134.12505097 147.23502913 -126.15657556 147.2388947 C-116.98318859 147.24337018 -107.80995101 147.2608982 -98.63660944 147.2898953 C-91.52977491 147.31157387 -84.42298223 147.3216023 -77.31611502 147.32293582 C-73.07919854 147.32397964 -68.84242266 147.32979649 -64.60554123 147.34775543 C-60.61473811 147.36434283 -56.62417968 147.36634043 -52.63335419 147.35761642 C-51.17740596 147.35685166 -49.72144399 147.36111381 -48.26552963 147.37107468 C-37.3051593 147.44159874 -27.50302547 146.79117555 -18 141 C-17.34 141 -16.68 141 -16 141 C-16 140.34 -16 139.68 -16 139 C-14.01739574 137.31267723 -12.0167658 135.64633943 -10 134 C-8.78113098 131.56226195 -8.86997131 129.99398992 -8.86196899 127.26870728 C-8.85651566 126.27045425 -8.85106232 125.27220123 -8.84544373 124.24369812 C-8.8444014 123.14443497 -8.84335907 122.04517181 -8.84228516 120.91259766 C-8.83720444 119.75805588 -8.83212372 118.6035141 -8.82688904 117.41398621 C-8.81616752 114.90016063 -8.80755437 112.3863254 -8.80076981 109.87248611 C-8.78901322 105.89740067 -8.76985296 101.92239417 -8.74765015 97.94735718 C-8.68570465 86.64300441 -8.63170696 75.3386565 -8.59863281 64.03417969 C-8.58029143 57.79268226 -8.55136212 51.55132752 -8.5106281 45.30993497 C-8.48955034 42.00660865 -8.47578484 38.70350193 -8.47182083 35.40010452 C-8.46693083 31.7152529 -8.44382133 28.03093517 -8.41650391 24.34619141 C-8.42101311 22.70336937 -8.42101311 22.70336937 -8.4256134 21.02735901 C-8.40897392 19.52152 -8.40897392 19.52152 -8.39199829 17.98526001 C-8.38868814 17.1139979 -8.385378 16.24273579 -8.38196754 15.34507179 C-7.91967601 12.50685461 -6.83984938 11.16932492 -5 9 C-4.67 8.34 -4.34 7.68 -4 7 C-2.68088303 4.65843494 -1.33806736 2.33082701 0 0 Z M-7 13 C-6 15 -6 15 -6 15 Z " fill="#5B4F9A" transform="translate(240,29)"/>
<path d="M0 0 C0.87436505 5.26194463 1.08832757 11.13298027 -1.875 15.75 C-2.926875 16.86375 -2.926875 16.86375 -4 18 C-4.66 18 -5.32 18 -6 18 C-6.36738281 18.90878906 -6.36738281 18.90878906 -6.7421875 19.8359375 C-8.23067764 22.39688016 -9.55837394 23.19909663 -12.125 24.625 C-14.2703818 25.78041673 -14.2703818 25.78041673 -16 27 C-16 27.66 -16 28.32 -16 29 C-16.84304687 29.12246094 -17.68609375 29.24492188 -18.5546875 29.37109375 C-29.15769537 31.22536451 -29.15769537 31.22536451 -37.76171875 37.0390625 C-38.98636447 39.40477845 -38.98636447 39.40477845 -40 43 C-41 45 -41 45 -42.4375 47.375 C-43.98341633 49.87566783 -43.98341633 49.87566783 -45 52.125 C-46 54 -46 54 -47.5 55.375 C-49.25858359 57.05078359 -49.25858359 57.05078359 -50 60.125 C-50.33 61.07375 -50.66 62.0225 -51 63 C-51.99 63.33 -52.98 63.66 -54 64 C-55.21869929 66.50447516 -55.21869929 66.50447516 -56 69 C-56.99 69 -57.98 69 -59 69 C-59.0928125 69.86625 -59.0928125 69.86625 -59.1875 70.75 C-60.32027301 73.88690987 -62.34197595 75.09167504 -65 77 C-58.72356111 80.25029871 -52.58877113 83.41274654 -45.5625 84.5625 C-44.716875 84.706875 -43.87125 84.85125 -43 85 C-42.67 85.66 -42.34 86.32 -42 87 C-39.14698737 87.97970257 -36.34273846 88.83370781 -33.4375 89.625 C-32.65052734 89.85445313 -31.86355469 90.08390625 -31.05273438 90.3203125 C-24.00705811 92.27195902 -17.85735135 93.13478919 -11 90 C-10.01 90 -9.02 90 -8 90 C-7.67 87.36 -7.34 84.72 -7 82 C-5.68 82 -4.36 82 -3 82 C-2.375 84.3125 -2.375 84.3125 -2 87 C-2.66 87.99 -3.32 88.98 -4 90 C-4.66 90 -5.32 90 -6 90 C-6.22429687 90.62132812 -6.44859375 91.24265625 -6.6796875 91.8828125 C-8.46998898 94.75365097 -9.88280485 95.01807104 -13.125 95.875 C-20.94811313 97.59272412 -28.24795481 96.40430462 -36 95 C-36.75087891 94.86722656 -37.50175781 94.73445313 -38.27539062 94.59765625 C-42.86050506 93.7809692 -47.43274005 92.9110226 -52 92 C-52 91.34 -52 90.68 -52 90 C-54.31 89.34 -56.62 88.68 -59 88 C-59 87.34 -59 86.68 -59 86 C-59.680625 86.061875 -60.36125 86.12375 -61.0625 86.1875 C-64 86 -64 86 -67.4375 84.4375 C-72.07302985 82.56702304 -74.76705515 83.05499945 -79.2890625 84.96875 C-86.85943852 87.84854722 -94.55096565 88.94746033 -102.1953125 86.01953125 C-104.19422985 84.89027275 -105.55439468 83.78441907 -107 82 C-106.8620055 79.24011003 -106.40444106 77.57473203 -104.8125 75.3125 C-98.98025594 71.08915086 -91.89992957 71.53857392 -85 72 C-84.505 72.495 -84.505 72.495 -84 73 C-78.84085158 74.11250237 -74.22091755 74.6186174 -69 74 C-65.26645297 71.26680305 -63.20018291 68.02674985 -61 64 C-60.63519531 63.36191406 -60.27039063 62.72382813 -59.89453125 62.06640625 C-58.9657467 60.3722296 -58.9657467 60.3722296 -58 58 C-56.4659338 54.93186761 -54.42061748 52.20575846 -52.47265625 49.38671875 C-50.98842044 46.98123313 -50.01337125 44.63224234 -49 42 C-47.73817611 39.61911331 -46.36695499 37.32382349 -45 35 C-45.67804688 34.98582031 -46.35609375 34.97164062 -47.0546875 34.95703125 C-55.49063444 34.52471818 -61.95283914 32.25747093 -68.5625 26.9375 C-71.51353723 22.96001503 -71.40417652 18.85011828 -71 14 C-69.54284179 10.18100241 -67.8997429 6.8997429 -65 4 C-63.125 3.55078125 -63.125 3.55078125 -61 3.3125 C-60.29875 3.22613281 -59.5975 3.13976562 -58.875 3.05078125 C-57 3 -57 3 -55 4 C-55.33 4.99 -55.66 5.98 -56 7 C-58.64 7.33 -61.28 7.66 -64 8 C-64.144375 8.9075 -64.28875 9.815 -64.4375 10.75 C-64.86409473 13.21476956 -65.35074221 15.58847107 -66 18 C-65.67 18 -65.34 18 -65 18 C-64.7525 19.093125 -64.505 20.18625 -64.25 21.3125 C-62.8943205 25.31175451 -62.59274212 26.06676257 -59 28 C-56.13307609 28.57019437 -53.29101505 28.738006 -50.375 28.875 C-49.59898438 28.93429688 -48.82296875 28.99359375 -48.0234375 29.0546875 C-45.51994115 29.23247691 -45.51994115 29.23247691 -42 29 C-41.01 27.515 -41.01 27.515 -40 26 C-39.34 25.34 -38.68 24.68 -38 24 C-37.31513275 22.67592331 -36.65129797 21.34090759 -36 20 C-33.85077663 16.00858517 -31.37985318 13.03320157 -28 10 C-27.34 10 -26.68 10 -26 10 C-26 9.34 -26 8.68 -26 8 C-23.59156268 5.24750021 -21.36179774 3.44077046 -18 2 C-18 1.34 -18 0.68 -18 0 C-4.89320388 -3.26213592 -4.89320388 -3.26213592 0 0 Z M-21 9 C-22.39819512 11.6514482 -22.39819512 11.6514482 -23 14 C-23.66 14 -24.32 14 -25 14 C-28.41778487 18.24633878 -29.56744475 21.59305933 -30 27 C-28.10820797 27.6814823 -28.10820797 27.6814823 -26 28 C-25.34 27.34 -24.68 26.68 -24 26 C-22.88625 25.566875 -21.7725 25.13375 -20.625 24.6875 C-16.76366357 22.88998132 -15.48678668 21.34429933 -13 18 C-11.66666667 17.33333333 -10.33333333 16.66666667 -9 16 C-5.67376828 12.55014172 -5.67376828 12.55014172 -5 8 C-4.34 8 -3.68 8 -3 8 C-3 5.69 -3 3.38 -3 1 C-10.67895202 0.45150343 -15.65140948 3.89452723 -21 9 Z M-32 25 C-31 27 -31 27 -31 27 Z M-33 28 C-33 28.33 -33 28.66 -33 29 C-31.35 29 -29.7 29 -28 29 C-28 28.67 -28 28.34 -28 28 C-29.65 28 -31.3 28 -33 28 Z M-54 30 C-50 31 -50 31 -50 31 Z M-49 31 C-49 31.33 -49 31.66 -49 32 C-46.69 32 -44.38 32 -42 32 C-42 31.67 -42 31.34 -42 31 C-44.31 31 -46.62 31 -49 31 Z M-103 78 C-103 79.32 -103 80.64 -103 82 C-96.82622212 85.186466 -90.52220691 84.67421459 -84.0625 82.625 C-81.3093232 81.66357318 -80.09829449 81.09829449 -78 79 C-80.22771342 78.49356447 -82.45724076 77.9951038 -84.6875 77.5 C-85.92886719 77.2215625 -87.17023438 76.943125 -88.44921875 76.65625 C-94.05974612 75.61932085 -97.64919744 76.0090037 -103 78 Z " fill="#544A8B" transform="translate(161,77)"/>
<path d="M0 0 C0.66 0 1.32 0 2 0 C4 2 4 2 4.0625 5.0625 C4.041875 6.031875 4.02125 7.00125 4 8 C4.33 8.33 4.66 8.66 5 9 C5.04063832 10.66617115 5.042721 12.33388095 5 14 C5.66 14 6.32 14 7 14 C8.33333333 16 9.66666667 18 11 20 C9.66666667 22.66666667 8.33333333 25.33333333 7 28 C6.34 28 5.68 28 5 28 C3.82891936 31.51324192 3.86770642 34.66365058 3.88647461 38.31713867 C3.88632858 39.05884811 3.88618256 39.80055756 3.8860321 40.56474304 C3.88672866 43.01584805 3.89450903 45.46687702 3.90234375 47.91796875 C3.90420884 49.61761941 3.90563232 51.31727061 3.90663147 53.016922 C3.91044945 57.49019861 3.92027362 61.96344276 3.93133545 66.43670654 C3.94156501 71.00141969 3.9461324 75.56613807 3.95117188 80.13085938 C3.96189651 89.08725385 3.97896433 98.04362422 4 107 C2.125 107.625 2.125 107.625 0 108 C-0.66 107.34 -1.32 106.68 -2 106 C-4.06874034 105.3574765 -4.06874034 105.3574765 -6 105 C-6.24649628 92.30914433 -6.46576332 79.61813895 -6.65021229 66.92622089 C-6.73671546 61.0329216 -6.83261608 55.14008692 -6.94995117 49.24731445 C-7.06282751 43.56113947 -7.15107327 37.87506795 -7.22220421 32.18822289 C-7.25368755 30.01795085 -7.29406642 27.84778914 -7.34345436 25.67785072 C-7.41108965 22.63961941 -7.44716489 19.6025347 -7.47583008 16.5637207 C-7.5031572 15.66532471 -7.53048431 14.76692871 -7.55863953 13.84130859 C-7.56692155 9.37218259 -7.49654007 7.61382154 -4.59526062 4.02726746 C-3.31060661 3.02377007 -3.31060661 3.02377007 -2 2 C-1.34 1.34 -0.68 0.68 0 0 Z " fill="#3E326D" transform="translate(475,29)"/>
<path d="M0 0 C-0.99 8.25 -1.98 16.5 -3 25 C-3.33 25 -3.66 25 -4 25 C-4.33 26.65 -4.66 28.3 -5 30 C-5.66 30 -6.32 30 -7 30 C-6.938125 30.886875 -6.87625 31.77375 -6.8125 32.6875 C-6.78216416 37.62212994 -8.13707989 42.25766197 -9.34375 47.01171875 C-10.14299761 50.14123458 -10.14299761 50.14123458 -10 54 C-8.68 51.69 -7.36 49.38 -6 47 C-5.01 47 -4.02 47 -3 47 C-3 48.98 -3 50.96 -3 53 C-3.61875 53.226875 -4.2375 53.45375 -4.875 53.6875 C-7.63071371 55.38955847 -7.88516132 57.02709686 -9 60 C-12.2756917 62.18379446 -13.20070529 62.54275639 -17 62 C-19.8125 60 -19.8125 60 -22 58 C-22.556875 58.66 -23.11375 59.32 -23.6875 60 C-26 62 -26 62 -28.75 62.25 C-29.4925 62.1675 -30.235 62.085 -31 62 C-31 61.34 -31 60.68 -31 60 C-31.66 60 -32.32 60 -33 60 C-33.02689216 58.52093108 -33.04634621 57.04172517 -33.0625 55.5625 C-33.07410156 54.73878906 -33.08570313 53.91507813 -33.09765625 53.06640625 C-33 51 -33 51 -32 50 C-31.4325021 47.39774277 -30.916325 44.80614582 -30.4375 42.1875 C-30.29892578 41.46240234 -30.16035156 40.73730469 -30.01757812 39.99023438 C-29.38416309 36.57977807 -29 33.48145719 -29 30 C-29.66 30.99 -30.32 31.98 -31 33 C-32.32 32.67 -33.64 32.34 -35 32 C-34.67 30.02 -34.34 28.04 -34 26 C-32.02 25.34 -30.04 24.68 -28 24 C-28 23.34 -28 22.68 -28 22 C-22.66036113 21.52536543 -22.66036113 21.52536543 -20 23.4375 C-18.7350652 26.67889543 -19.36900733 28.79322741 -20.25 32.0859375 C-21.21132257 35.82107623 -21.9194968 39.58451599 -22.625 43.375 C-22.75986816 44.0772168 -22.89473633 44.77943359 -23.03369141 45.50292969 C-23.57633075 48.38539645 -24 51.05953432 -24 54 C-22.68 51.69 -21.36 49.38 -20 47 C-19.01 47 -18.02 47 -17 47 C-16.87753906 45.71222656 -16.75507813 44.42445313 -16.62890625 43.09765625 C-16.07569747 38.11877721 -15.0728482 33.31187479 -13.9375 28.4375 C-13.75123047 27.61958984 -13.56496094 26.80167969 -13.37304688 25.95898438 C-12.91979313 23.97164104 -12.46053788 21.98566799 -12 20 C-11.34 20 -10.68 20 -10 20 C-10.020625 18.783125 -10.04125 17.56625 -10.0625 16.3125 C-10.06824116 13.08022678 -9.78766315 10.15065259 -9 7 C-9.99 7 -10.98 7 -12 7 C-12 6.01 -12 5.02 -12 4 C-10.3767313 3.3291288 -8.75132422 2.66342971 -7.125 2 C-6.22007812 1.62875 -5.31515625 1.2575 -4.3828125 0.875 C-2 0 -2 0 0 0 Z " fill="#62599A" transform="translate(198,95)"/>
<path d="M0 0 C2.64 0 5.28 0 8 0 C7.34 3.63 6.68 7.26 6 11 C5.34 11 4.68 11 4 11 C4.020625 11.969375 4.04125 12.93875 4.0625 13.9375 C4.07008881 17.66360711 3.68369356 21.29065669 3.21875 24.984375 C2.9460532 27.15917116 2.9460532 27.15917116 3 30 C3.66 30 4.32 30 5 30 C5 29.01 5 28.02 5 27 C5.99 27 6.98 27 8 27 C8.495 25.515 8.495 25.515 9 24 C8.49856014 27.72498181 8.00017122 31.37437934 7 35 C6.7215625 36.11375 6.7215625 36.11375 6.4375 37.25 C6.293125 37.8275 6.14875 38.405 6 39 C5.67 38.34 5.34 37.68 5 37 C3.515 37.495 3.515 37.495 2 38 C2 38.66 2 39.32 2 40 C-1 42 -1 42 -3.5625 41.6875 C-6 41 -6 41 -8 40 C-8.625 37.9375 -8.625 37.9375 -9 36 C-9.33 36.66 -9.66 37.32 -10 38 C-10.66 38 -11.32 38 -12 38 C-12 38.66 -12 39.32 -12 40 C-14.72924426 41.8558861 -16.19197176 41.99663207 -19.5625 41.9375 C-23 41 -23 41 -24.6953125 38.8359375 C-27.98398693 31.68750146 -26.50875173 22.26217607 -24 15 C-22.6875 12.9375 -22.6875 12.9375 -21 11 C-20.61585938 10.40832031 -20.23171875 9.81664063 -19.8359375 9.20703125 C-19.41570312 8.56121094 -18.99546875 7.91539063 -18.5625 7.25 C-18.17191406 6.63640625 -17.78132812 6.0228125 -17.37890625 5.390625 C-16.92386719 4.93171875 -16.46882812 4.4728125 -16 4 C-14.68 4 -13.36 4 -12 4 C-12 3.34 -12 2.68 -12 2 C-6.06 1.505 -6.06 1.505 0 1 C0 0.67 0 0.34 0 0 Z M-11.5 9.125 C-17.19749192 16.73974317 -19.80747591 26.63327947 -19 36 C-18.34 36.33 -17.68 36.66 -17 37 C-16.01 36.67 -15.02 36.34 -14 36 C-14 35.34 -14 34.68 -14 34 C-13.34 34 -12.68 34 -12 34 C-11.525625 32.906875 -11.05125 31.81375 -10.5625 30.6875 C-10.29566406 30.07261719 -10.02882812 29.45773438 -9.75390625 28.82421875 C-9.10038058 27.24288979 -8.54108198 25.62324594 -8 24 C-7.01 23.67 -6.02 23.34 -5 23 C-3.37103347 17.94163024 -1.48727913 12.02544174 -4 7 C-7.57069156 6.38788145 -8.70427697 6.74863542 -11.5 9.125 Z M1 27 C0.67 29.97 0.34 32.94 0 36 C0.33 35.34 0.66 34.68 1 34 C1.66 34 2.32 34 3 34 C2.67 31.69 2.34 29.38 2 27 C1.67 27 1.34 27 1 27 Z " fill="#504392" transform="translate(157,115)"/>
<path d="M0 0 C0.625 1.875 0.625 1.875 1 4 C0.34 4.66 -0.32 5.32 -1 6 C-1 7.32 -1 8.64 -1 10 C-2.5 11.75 -2.5 11.75 -4 13 C2.27643889 16.25029871 8.41122887 19.41274654 15.4375 20.5625 C16.283125 20.706875 17.12875 20.85125 18 21 C18.495 21.99 18.495 21.99 19 23 C21.85301263 23.97970257 24.65726154 24.83370781 27.5625 25.625 C28.34947266 25.85445312 29.13644531 26.08390625 29.94726562 26.3203125 C36.99294189 28.27195902 43.14264865 29.13478919 50 26 C50.99 26 51.98 26 53 26 C53.33 23.36 53.66 20.72 54 18 C55.32 18 56.64 18 58 18 C58.625 20.3125 58.625 20.3125 59 23 C58.01 24.485 58.01 24.485 57 26 C56.34 26 55.68 26 55 26 C54.77570313 26.62132812 54.55140625 27.24265625 54.3203125 27.8828125 C52.53001102 30.75365097 51.11719515 31.01807104 47.875 31.875 C40.05188687 33.59272412 32.75204519 32.40430462 25 31 C23.87368164 30.80083984 23.87368164 30.80083984 22.72460938 30.59765625 C18.13949494 29.7809692 13.56725995 28.9110226 9 28 C9 27.34 9 26.68 9 26 C6.69 25.34 4.38 24.68 2 24 C2 23.34 2 22.68 2 22 C1.319375 22.061875 0.63875 22.12375 -0.0625 22.1875 C-3 22 -3 22 -6.4375 20.4375 C-11.07302985 18.56702304 -13.76705515 19.05499945 -18.2890625 20.96875 C-25.85943852 23.84854722 -33.55096565 24.94746033 -41.1953125 22.01953125 C-43.19422985 20.89027275 -44.55439468 19.78441907 -46 18 C-45.8620055 15.24011003 -45.40444106 13.57473203 -43.8125 11.3125 C-37.98025594 7.08915086 -30.89992957 7.53857392 -24 8 C-23.67 8.33 -23.34 8.66 -23 9 C-17.83861147 10.11298542 -13.22067793 10.64859746 -8 10 C-4.39329965 7.18575775 -2.19302977 3.98668989 0 0 Z M-42 14 C-42 15.32 -42 16.64 -42 18 C-35.82622212 21.186466 -29.52220691 20.67421459 -23.0625 18.625 C-20.3093232 17.66357318 -19.09829449 17.09829449 -17 15 C-19.22771342 14.49356447 -21.45724076 13.9951038 -23.6875 13.5 C-24.92886719 13.2215625 -26.17023438 12.943125 -27.44921875 12.65625 C-33.05974612 11.61932085 -36.64919744 12.0090037 -42 14 Z " fill="#5F5697" transform="translate(100,141)"/>
<path d="M0 0 C-0.31375708 5.33387035 -1.49254203 9.43399864 -3.5625 14.375 C-6.32503214 21.25737776 -7.28240633 26.99248022 -5 34.125 C-4.67 34.74375 -4.34 35.3625 -4 36 C-3.34 36 -2.68 36 -2 36 C-1.01 33.69 -0.02 31.38 1 29 C2.65 29 4.3 29 6 29 C7 31 7 31 5.8203125 34.703125 C5.26260165 36.22148611 4.69713689 37.73701578 4.125 39.25 C-0.24573553 50.88533706 -2.2228206 62.26041675 3 74 C4.5488841 76.9216166 4.5488841 76.9216166 6 79 C3 80 3 80 0 80 C-2.00309329 80.31421071 -4.00371336 80.6451046 -6 81 C-8.89152524 72.14470395 -9.16753268 62.06895673 -7 53 C-7.66 52.67 -8.32 52.34 -9 52 C-11.43440242 49.47196672 -11.98161105 48.31874173 -12.1875 44.75 C-12.125625 43.8425 -12.06375 42.935 -12 42 C-12.66 42 -13.32 42 -14 42 C-14 38.04 -14 34.08 -14 30 C-13.34 30 -12.68 30 -12 30 C-12.0928125 28.0509375 -12.0928125 28.0509375 -12.1875 26.0625 C-12.15993785 17.22883136 -8.15085101 8.67153983 -4 1 C-2 0 -2 0 0 0 Z " fill="#574999" transform="translate(26,90)"/>
<path d="M0 0 C2.25 -0.3125 2.25 -0.3125 5 0 C7.375 1.875 7.375 1.875 9 5 C9.19780821 10.10180353 8.50045143 14.52605179 6 19 C5.360625 18.814375 4.72125 18.62875 4.0625 18.4375 C3.0415625 18.2209375 3.0415625 18.2209375 2 18 C-0.12046992 20.12046992 0.30610784 24.49360349 0 27.4375 C-0.86687307 35.73374613 -0.86687307 35.73374613 -2 38 C-3.65 38 -5.3 38 -7 38 C-7.433125 37.0409375 -7.433125 37.0409375 -7.875 36.0625 C-8.82823451 33.84793921 -8.82823451 33.84793921 -11 33 C-11.495 31.515 -11.495 31.515 -12 30 C-14.03538947 29.08595895 -14.03538947 29.08595895 -16.4375 28.5 C-20.78082192 27.32876712 -20.78082192 27.32876712 -23 24 C-23.6320746 19.03635538 -23.32005605 14.4951086 -21 10 C-17.8125 9.6875 -17.8125 9.6875 -14 10 C-11.25 12.5 -11.25 12.5 -9 15 C-8.01 15 -7.02 15 -6 15 C-6 16.32 -6 17.64 -6 19 C-5.83564453 17.53626953 -5.83564453 17.53626953 -5.66796875 16.04296875 C-5.50941406 14.77066406 -5.35085938 13.49835938 -5.1875 12.1875 C-5.03667969 10.92292969 -4.88585937 9.65835938 -4.73046875 8.35546875 C-3.99932026 4.99687757 -3.59964356 4.05378665 -1 2 C-0.67 1.34 -0.34 0.68 0 0 Z " fill="#44397C" transform="translate(296,77)"/>
<path d="M0 0 C0 3.63 0 7.26 0 11 C-0.66 11 -1.32 11 -2 11 C-2 12.32 -2 13.64 -2 15 C-3.390625 16.5625 -3.390625 16.5625 -5.25 18 C-7.3495395 19.67372928 -9.24865533 21.25596872 -11.125 23.1875 C-13.23677142 25.22887904 -15.48699043 26.49219426 -18 28 C-19.37195574 29.29355827 -20.71182656 30.62298702 -22 32 C-24 34 -24 34 -26.4375 35.9375 C-28.9261178 37.83805727 -28.9261178 37.83805727 -30.5625 39.6875 C-32 41 -32 41 -34.125 41.5 C-35.053125 41.7475 -35.053125 41.7475 -36 42 C-36.33 42.99 -36.66 43.98 -37 45 C-37.66 44.67 -38.32 44.34 -39 44 C-39.34518199 38.36202751 -38.63930407 34.88760013 -36 30 C-35.01 29.67 -34.02 29.34 -33 29 C-32.67 27.35 -32.34 25.7 -32 24 C-30.35 24 -28.7 24 -27 24 C-27 23.34 -27 22.68 -27 22 C-26.34 22 -25.68 22 -25 22 C-25 21.34 -25 20.68 -25 20 C-21.56971047 16.01643796 -17.67638656 13.38906331 -13.28125 10.546875 C-9.31562914 7.85785811 -5.70958539 4.75457448 -2.3671875 1.32421875 C-1 0 -1 0 0 0 Z " fill="#3E3363" transform="translate(471,6)"/>
<path d="M0 0 C0.99 0.33 1.98 0.66 3 1 C4.54283368 30.97857148 4.54283368 61.02142852 3 91 C2.01 91 1.02 91 0 91 C-0.88799718 86.65868043 -0.9838271 82.94660601 -0.53125 78.53271484 C0.04762792 72.08077058 0.11131925 65.70038559 0.0625 59.2265625 C0.05871338 58.05918549 0.05492676 56.89180847 0.05102539 55.6890564 C0.03892479 52.00099786 0.02028774 48.313022 0 44.625 C-0.02663005 39.74218965 -0.04658321 34.85941818 -0.0625 29.9765625 C-0.07079834 28.86399078 -0.07909668 27.75141907 -0.08764648 26.60513306 C-0.10343964 21.62350038 -0.07818876 16.89323659 1 12 C0.67 12.33 0.34 12.66 0 13 C-1.32 13 -2.64 13 -4 13 C-3.99777939 14.10674576 -3.99555878 15.21349152 -3.99327087 16.35377502 C-3.97289919 26.84171204 -3.95796078 37.32964499 -3.94818783 47.81759739 C-3.94299439 53.20807795 -3.93596189 58.59854239 -3.92456055 63.98901367 C-3.91360481 69.20210361 -3.90769659 74.41517816 -3.90512276 79.62827873 C-3.90329117 81.60592834 -3.89971517 83.58357721 -3.89426994 85.56122017 C-3.86470365 96.75612875 -4.05025012 107.84065761 -5 119 C-5.33 119 -5.66 119 -6 119 C-6 85.34 -6 51.68 -6 17 C-6.66 17 -7.32 17 -8 17 C-7.25 11.25 -7.25 11.25 -5 9 C-4.67 8.34 -4.34 7.68 -4 7 C-2.68088303 4.65843494 -1.33806736 2.33082701 0 0 Z M-7 13 C-6 15 -6 15 -6 15 Z " fill="#3D355D" transform="translate(240,29)"/>
<path d="M0 0 C0.99 0 1.98 0 3 0 C3.20753906 0.55429688 3.41507812 1.10859375 3.62890625 1.6796875 C5.36545561 6.04608448 5.36545561 6.04608448 8.82421875 8.9765625 C10.95011148 9.59316932 10.95011148 9.59316932 14 10 C14 10.99 14 11.98 14 13 C12.906875 13.391875 11.81375 13.78375 10.6875 14.1875 C7.06908844 15.72989361 5.64151998 17.35217782 4 21 C3.505 22.485 3.505 22.485 3 24 C2.01 23.67 1.02 23.34 0 23 C-0.71706982 21.01751285 -1.38290413 19.01584651 -2 17 C-2.66 16.34 -3.32 15.68 -4 15 C-4.33 15.66 -4.66 16.32 -5 17 C-6.093125 17.391875 -7.18625 17.78375 -8.3125 18.1875 C-12.80877326 19.96380549 -13.98833941 22.73527954 -16 27 C-16.66 27 -17.32 27 -18 27 C-18.495 25.39125 -18.495 25.39125 -19 23.75 C-20.73668287 19.57348949 -23.32645329 18.36392372 -27.35546875 16.62890625 C-28.16951172 16.31759766 -28.16951172 16.31759766 -29 16 C-26.44722581 13.20766929 -24.77639718 12.51032394 -21 12 C-20.87625 11.443125 -20.7525 10.88625 -20.625 10.3125 C-19.94023145 7.77885636 -19.00866237 5.42078968 -18 3 C-17.01 3.33 -16.02 3.66 -15 4 C-13.3125 7.5625 -13.3125 7.5625 -12 11 C-6.13561805 9.16536408 -6.13561805 9.16536408 -1.734375 5.17578125 C-0.81822188 3.06283185 -0.81822188 3.06283185 0 0 Z " fill="#5D539A" transform="translate(406,162)"/>
<path d="M0 0 C-0.99 8.25 -1.98 16.5 -3 25 C-3.33 25 -3.66 25 -4 25 C-4.33 26.65 -4.66 28.3 -5 30 C-5.66 30 -6.32 30 -7 30 C-6.938125 30.886875 -6.87625 31.77375 -6.8125 32.6875 C-6.77589792 38.5926351 -8.56365929 44.31448468 -10 50 C-10.61875 49.195625 -11.2375 48.39125 -11.875 47.5625 C-13.74164041 44.96125481 -13.74164041 44.96125481 -16 44 C-15.4533512 35.81911794 -13.82876132 27.98214061 -12 20 C-11.34 20 -10.68 20 -10 20 C-10.020625 18.783125 -10.04125 17.56625 -10.0625 16.3125 C-10.06824116 13.08022678 -9.78766315 10.15065259 -9 7 C-9.99 7 -10.98 7 -12 7 C-12 6.01 -12 5.02 -12 4 C-10.3767313 3.3291288 -8.75132422 2.66342971 -7.125 2 C-6.22007812 1.62875 -5.31515625 1.2575 -4.3828125 0.875 C-2 0 -2 0 0 0 Z " fill="#5B5199" transform="translate(198,95)"/>
<path d="M0 0 C1.23259048 -0.00274933 2.46518097 -0.00549866 3.73512268 -0.0083313 C5.10322668 -0.00125303 6.47132969 0.00601659 7.83943176 0.01345825 C9.27827954 0.01402232 10.7171279 0.01370589 12.15597534 0.01257324 C16.06481421 0.01199856 19.97353075 0.02377151 23.88234115 0.03772116 C27.96628308 0.0502093 32.05022771 0.0513975 36.13418579 0.05377197 C43.86896024 0.05999238 51.60367826 0.07641078 59.33842784 0.09647095 C68.14364239 0.11881251 76.94885961 0.12981899 85.75409544 0.13986182 C103.86826625 0.16077653 121.98238451 0.1959634 140.09651184 0.24050903 C139.76651184 0.90050903 139.43651184 1.56050903 139.09651184 2.24050903 C93.88651184 2.57050903 48.67651184 2.90050903 2.09651184 3.24050903 C2.09651184 3.90050903 2.09651184 4.56050903 2.09651184 5.24050903 C-1.60248824 4.35274901 -5.24899277 3.2946904 -8.90348816 2.24050903 C-5.42459782 -0.07875119 -4.10457973 -0.00704649 0 0 Z " fill="#3E3176" transform="translate(261.9034881591797,138.75949096679688)"/>
<path d="M0 0 C0.99 0.33 1.98 0.66 3 1 C2.979375 2.11375 2.95875 3.2275 2.9375 4.375 C2.73619282 7.83215921 2.73619282 7.83215921 4 10 C5.32 10 6.64 10 8 10 C8.99 10 9.98 10 11 10 C10.67 7.69 10.34 5.38 10 3 C10.33 3.99 10.66 4.98 11 6 C11.66 6 12.32 6 13 6 C13 5.01 13 4.02 13 3 C13.99 3 14.98 3 16 3 C16.33 2.01 16.66 1.02 17 0 C16.49856014 3.72498181 16.00017122 7.37437934 15 11 C14.814375 11.7425 14.62875 12.485 14.4375 13.25 C14.293125 13.8275 14.14875 14.405 14 15 C13.67 14.34 13.34 13.68 13 13 C12.01 13.33 11.02 13.66 10 14 C10 14.66 10 15.32 10 16 C7 18 7 18 4.4375 17.6875 C2 17 2 17 0 16 C-0.625 13.9375 -0.625 13.9375 -1 12 C-1.33 12.66 -1.66 13.32 -2 14 C-2.66 14 -3.32 14 -4 14 C-4 14.66 -4 15.32 -4 16 C-6.8221083 17.91903365 -8.12901932 17.99110212 -11.625 17.75 C-15 17 -15 17 -17 15 C-16.67 14.01 -16.34 13.02 -16 12 C-12.7 12 -9.4 12 -6 12 C-6 11.34 -6 10.68 -6 10 C-5.34 10 -4.68 10 -4 10 C-3.71125 8.72125 -3.4225 7.4425 -3.125 6.125 C-2.45897517 3.17546145 -2.19797403 2.19797403 0 0 Z " fill="#5E5499" transform="translate(149,139)"/>
<path d="M0 0 C0.87436505 5.26194463 1.08832757 11.13298027 -1.875 15.75 C-2.57625 16.4925 -3.2775 17.235 -4 18 C-4.66 18 -5.32 18 -6 18 C-6.24492187 18.60585937 -6.48984375 19.21171875 -6.7421875 19.8359375 C-8.23067764 22.39688016 -9.55837394 23.19909663 -12.125 24.625 C-14.2703818 25.78041673 -14.2703818 25.78041673 -16 27 C-16 27.66 -16 28.32 -16 29 C-21.53846154 28.38461538 -21.53846154 28.38461538 -23.875 26.4375 C-24.24625 25.963125 -24.6175 25.48875 -25 25 C-22 23 -22 23 -19 22.125 C-15.67115567 20.87668338 -14.93558304 19.85728925 -13 17 C-12.01 16.67 -11.02 16.34 -10 16 C-9.2884375 14.5459375 -9.2884375 14.5459375 -8.5625 13.0625 C-6.94789981 9.89788363 -6.26336918 9.12529972 -3 8 C-3 5.69 -3 3.38 -3 1 C-8.87715995 1.97312452 -12.34660118 3.14432669 -17 7 C-19.3125 6.75 -19.3125 6.75 -21 6 C-20.505 5.195625 -20.01 4.39125 -19.5 3.5625 C-17.91580347 1.35103815 -17.91580347 1.35103815 -18 0 C-4.89320388 -3.26213592 -4.89320388 -3.26213592 0 0 Z " fill="#52497F" transform="translate(161,77)"/>
<path d="M0 0 C1.65 0.33 3.3 0.66 5 1 C4.67 1.99 4.34 2.98 4 4 C2.68 4 1.36 4 0 4 C0 5.65 0 7.3 0 9 C0.66 9 1.32 9 2 9 C1.48091717 12.21831355 0.60908964 15.13615094 -0.5 18.1875 C-2.18633137 23.07374797 -2.68891371 27.8617127 -3 33 C-5.31 32.67 -7.62 32.34 -10 32 C-10.51231527 13.32895457 -10.51231527 13.32895457 -5 7 C-4.09515138 5.75651042 -3.19994922 4.50596626 -2.3125 3.25 C-1.549375 2.1775 -0.78625 1.105 0 0 Z " fill="#594D97" transform="translate(141,119)"/>
<path d="M0 0 C0.99 0 1.98 0 3 0 C3.20753906 0.55429688 3.41507812 1.10859375 3.62890625 1.6796875 C5.36545561 6.04608448 5.36545561 6.04608448 8.82421875 8.9765625 C10.95011148 9.59316932 10.95011148 9.59316932 14 10 C14 10.99 14 11.98 14 13 C12.906875 13.391875 11.81375 13.78375 10.6875 14.1875 C7.06908844 15.72989361 5.64151998 17.35217782 4 21 C3.67 21.99 3.34 22.98 3 24 C2.01 23.67 1.02 23.34 0 23 C-0.71706982 21.01751285 -1.38290413 19.01584651 -2 17 C-2.66 16.34 -3.32 15.68 -4 15 C-4.875 12.1875 -4.875 12.1875 -5 9 C-3.125 6.375 -3.125 6.375 -1 4 C-0.22166466 1.81785432 -0.22166466 1.81785432 0 0 Z " fill="#5E529A" transform="translate(406,162)"/>
<path d="M0 0 C-0.31271083 5.3160841 -1.48629666 9.49319094 -3.5 14.4375 C-5.67276404 19.79781473 -6.53805247 24.27185059 -7 30 C-7.66 30.99 -8.32 31.98 -9 33 C-9.66 33 -10.32 33 -11 33 C-11 35.97 -11 38.94 -11 42 C-11.99 42 -12.98 42 -14 42 C-14 38.04 -14 34.08 -14 30 C-13.34 30 -12.68 30 -12 30 C-12.0928125 28.0509375 -12.0928125 28.0509375 -12.1875 26.0625 C-12.15993785 17.22883136 -8.15085101 8.67153983 -4 1 C-2 0 -2 0 0 0 Z " fill="#7E73AB" transform="translate(26,90)"/>
<path d="M0 0 C1.36421031 2.72842061 0.87807211 4.60953318 0.5625 7.625 C0.46066406 8.62789062 0.35882813 9.63078125 0.25390625 10.6640625 C0.17011719 11.43492188 0.08632812 12.20578125 0 13 C-1.32 13 -2.64 13 -4 13 C-3.99777939 14.10674576 -3.99555878 15.21349152 -3.99327087 16.35377502 C-3.97289919 26.84171204 -3.95796078 37.32964499 -3.94818783 47.81759739 C-3.94299439 53.20807795 -3.93596189 58.59854239 -3.92456055 63.98901367 C-3.91360481 69.20210361 -3.90769659 74.41517816 -3.90512276 79.62827873 C-3.90329117 81.60592834 -3.89971517 83.58357721 -3.89426994 85.56122017 C-3.86470365 96.75612875 -4.05025012 107.84065761 -5 119 C-5.33 119 -5.66 119 -6 119 C-6 85.34 -6 51.68 -6 17 C-6.66 17 -7.32 17 -8 17 C-7.25 11.25 -7.25 11.25 -5 9 C-4.67 8.34 -4.34 7.68 -4 7 C-2.68088303 4.65843494 -1.33806736 2.33082701 0 0 Z M-7 13 C-6 15 -6 15 -6 15 Z " fill="#3B2F74" transform="translate(240,29)"/>
<path d="M0 0 C-0.99 8.25 -1.98 16.5 -3 25 C-3.99 24.01 -4.98 23.02 -6 22 C-6.66 22.99 -7.32 23.98 -8 25 C-9.77260144 23.22739856 -9.41939856 20.65847401 -9.625 18.25 C-9.72039062 17.20328125 -9.81578125 16.1565625 -9.9140625 15.078125 C-9.9949665 12.18029068 -9.69531568 9.80201843 -9 7 C-9.99 7 -10.98 7 -12 7 C-12 6.01 -12 5.02 -12 4 C-10.3767313 3.3291288 -8.75132422 2.66342971 -7.125 2 C-6.22007812 1.62875 -5.31515625 1.2575 -4.3828125 0.875 C-2 0 -2 0 0 0 Z " fill="#493D86" transform="translate(198,95)"/>
<path d="M0 0 C0.81639702 0.01281384 1.63279404 0.02562767 2.47393036 0.0388298 C12.31631126 0.19495947 22.15828335 0.36881593 32 0.5625 C32 0.8925 32 1.2225 32 1.5625 C-18.82 1.5625 -69.64 1.5625 -122 1.5625 C-122 1.2325 -122 0.9025 -122 0.5625 C-110.20862701 0.35495381 -98.41698535 0.16915251 -86.625 0 C-85.73816528 -0.01273327 -84.85133057 -0.02546654 -83.93762207 -0.03858566 C-55.94996082 -0.43425496 -27.98701193 -0.439722 0 0 Z " fill="#5A5582" transform="translate(173,174.4375)"/>
<path d="M0 0 C48.18 0 96.36 0 146 0 C146 0.33 146 0.66 146 1 C97.82 1 49.64 1 0 1 C0 0.67 0 0.34 0 0 Z " fill="#423774" transform="translate(258,137)"/>
<path d="M0 0 C2 2 2 2 3 4 C2.54625 4.70125 2.0925 5.4025 1.625 6.125 C-0.48234275 9.85337564 -0.64003226 12.7523807 -1 17 C-1.99 17.33 -2.98 17.66 -4 18 C-5.21869929 20.50447516 -5.21869929 20.50447516 -6 23 C-6.99 23 -7.98 23 -9 23 C-9.33 24.32 -9.66 25.64 -10 27 C-10 26.34 -10 25.68 -10 25 C-10.99 24.67 -11.98 24.34 -13 24 C-12.67 23.34 -12.34 22.68 -12 22 C-11.34 22 -10.68 22 -10 22 C-10.04125 21.0925 -10.0825 20.185 -10.125 19.25 C-10.00298518 16.07761474 -9.60948489 14.65091629 -8 12 C-7.67 11.34 -7.34 10.68 -7 10 C-5.82587109 8.28244932 -4.63644431 6.57532102 -3.4375 4.875 C-2.47650391 3.50988281 -2.47650391 3.50988281 -1.49609375 2.1171875 C-1.00238281 1.41851562 -0.50867188 0.71984375 0 0 Z " fill="#574D95" transform="translate(111,123)"/>
<path d="M0 0 C0.33 0 0.66 0 1 0 C1 4.62 1 9.24 1 14 C1.66 14 2.32 14 3 14 C3 12.02 3 10.04 3 8 C4.65 7.67 6.3 7.34 8 7 C8.18175781 7.59167969 8.36351562 8.18335938 8.55078125 8.79296875 C9.95667057 13.212508 11.37527181 17.12540125 14 21 C11 22 11 22 8 22 C5.99690671 22.31421071 3.99628664 22.6451046 2 23 C-0.48260659 15.39701733 -0.18508331 7.89688807 0 0 Z " fill="#685FA6" transform="translate(18,148)"/>
<path d="M0 0 C0.33 0.33 0.66 0.66 1 1 C2.34747084 1.23075082 3.70377565 1.41153063 5.0625 1.5625 C6.361875 1.706875 7.66125 1.85125 9 2 C9 2.33 9 2.66 9 3 C8.195625 3.12375 7.39125 3.2475 6.5625 3.375 C5.716875 3.58125 4.87125 3.7875 4 4 C3.67 4.66 3.34 5.32 3 6 C1.98679687 5.91621094 0.97359375 5.83242187 -0.0703125 5.74609375 C-1.42184621 5.64285159 -2.77341042 5.5400082 -4.125 5.4375 C-4.79015625 5.38142578 -5.4553125 5.32535156 -6.140625 5.26757812 C-10.2728041 4.96374143 -13.94695741 5.14772469 -18 6 C-18 6.99 -18 7.98 -18 9 C-18.66 9 -19.32 9 -20 9 C-20.33 9.66 -20.66 10.32 -21 11 C-21.75 8.75 -21.75 8.75 -22 6 C-16.8518479 -1.20741295 -7.99883491 -0.53491431 0 0 Z " fill="#746F9F" transform="translate(76,149)"/>
<path d="M0 0 C1.65 0.33 3.3 0.66 5 1 C4.67 1.99 4.34 2.98 4 4 C2.68 4 1.36 4 0 4 C0 5.65 0 7.3 0 9 C0.66 9 1.32 9 2 9 C1.125 13.75 1.125 13.75 0 16 C-0.99 15.67 -1.98 15.34 -3 15 C-4.95216435 16.95216435 -5.84826645 18.53199953 -7 21 C-7.99 20.34 -8.98 19.68 -10 19 C-8.19474117 10.66803615 -8.19474117 10.66803615 -5 7 C-4.09515138 5.75651042 -3.19994922 4.50596626 -2.3125 3.25 C-1.549375 2.1775 -0.78625 1.105 0 0 Z " fill="#5E5198" transform="translate(141,119)"/>
<path d="M0 0 C0.99 0 1.98 0 3 0 C3 1.98 3 3.96 3 6 C2.071875 6.3403125 2.071875 6.3403125 1.125 6.6875 C-1.63071371 8.38955847 -1.88516132 10.02709686 -3 13 C-6.22791555 15.1519437 -7.28400809 15.20086443 -11 15 C-11.05399736 13.54207116 -11.09279177 12.08357288 -11.125 10.625 C-11.15980469 9.40683594 -11.15980469 9.40683594 -11.1953125 8.1640625 C-11 6 -11 6 -9 4 C-8.01 4 -7.02 4 -6 4 C-6 5.65 -6 7.3 -6 9 C-5.34 9 -4.68 9 -4 9 C-3.71125 8.071875 -3.4225 7.14375 -3.125 6.1875 C-2 3 -2 3 0 0 Z " fill="#5D5392" transform="translate(192,142)"/>
<path d="M0 0 C-0.33 0.99 -0.66 1.98 -1 3 C-3.64 3.33 -6.28 3.66 -9 4 C-9.33 5.98 -9.66 7.96 -10 10 C-10.33 10 -10.66 10 -11 10 C-11.66 13.63 -12.32 17.26 -13 21 C-13.99 21 -14.98 21 -16 21 C-16.48290881 13.70271128 -16.22181235 8.14782164 -12 2 C-8.24587786 -1.75412214 -4.98458941 -1.01957511 0 0 Z " fill="#606082" transform="translate(106,81)"/>
<path d="M0 0 C0.66 0.33 1.32 0.66 2 1 C2.3721042 2.32303717 2.70630173 3.65737935 3 5 C3.33 5.33 3.66 5.66 4 6 C4.07205511 7.68608966 4.08386068 9.37500659 4.0625 11.0625 C4.05347656 11.98160156 4.04445313 12.90070313 4.03515625 13.84765625 C4.02355469 14.55792969 4.01195312 15.26820313 4 16 C3.01 16 2.02 16 1 16 C0.67 17.98 0.34 19.96 0 22 C-0.66 22 -1.32 22 -2 22 C-2 15.73 -2 9.46 -2 3 C-2.66 2.67 -3.32 2.34 -4 2 C-2.125 0.9375 -2.125 0.9375 0 0 Z " fill="#5E5493" transform="translate(21,140)"/>
<path d="M0 0 C0.99 0 1.98 0 3 0 C3.33 0.99 3.66 1.98 4 3 C6.50447516 4.21869929 6.50447516 4.21869929 9 5 C7.94124926 8.40312738 6.99097846 11.01353231 5 14 C4.01 14 3.02 14 2 14 C1.67 12.68 1.34 11.36 1 10 C-0.65 9.67 -2.3 9.34 -4 9 C-4 8.34 -4 7.68 -4 7 C-3.525625 6.54625 -3.05125 6.0925 -2.5625 5.625 C-0.77906263 3.77022513 -0.4308007 2.49864408 0 0 Z " fill="#4E4283" transform="translate(174,102)"/>
<path d="M0 0 C0.33 0.66 0.66 1.32 1 2 C1.66 2.33 2.32 2.66 3 3 C5 4 5 4 6 6 C6.13415472 8.6723621 6.04318541 11.32250488 6 14 C5.67 14 5.34 14 5 14 C5 12.35 5 10.7 5 9 C3.02 9.99 3.02 9.99 1 11 C1 13.31 1 15.62 1 18 C0.01 18 -0.98 18 -2 18 C-2.33 15.69 -2.66 13.38 -3 11 C-3.99 10.67 -4.98 10.34 -6 10 C-4.6875 7.5 -4.6875 7.5 -3 5 C-2.01 5 -1.02 5 0 5 C0 3.35 0 1.7 0 0 Z " fill="#756AAA" transform="translate(181,137)"/>
<path d="M0 0 C0.33 0.66 0.66 1.32 1 2 C1.99 2 2.98 2 4 2 C2.59189295 5.48321217 1.13413212 6.81437105 -2.125 8.625 C-4.2703818 9.78041673 -4.2703818 9.78041673 -6 11 C-6 11.66 -6 12.32 -6 13 C-11.53846154 12.38461538 -11.53846154 12.38461538 -13.875 10.4375 C-14.24625 9.963125 -14.6175 9.48875 -15 9 C-12 7 -12 7 -9 6.125 C-5.67115567 4.87668338 -4.93558304 3.85728925 -3 1 C-2.01 0.67 -1.02 0.34 0 0 Z " fill="#534D80" transform="translate(151,93)"/>
<path d="M0 0 C-0.40475235 7.15062486 -2.82523652 12.62704304 -6 19 C-6.99 18.67 -7.98 18.34 -9 18 C-9.25953127 13.38990507 -8.59572151 10.35107637 -6.625 6.1875 C-6.18414063 5.23230469 -5.74328125 4.27710937 -5.2890625 3.29296875 C-3.77388785 0.59779445 -3.08728247 0 0 0 Z " fill="#5F5592" transform="translate(26,90)"/>
<path d="M0 0 C1.32 0 2.64 0 4 0 C4.625 2.3125 4.625 2.3125 5 5 C4.01 6.485 4.01 6.485 3 8 C2.34 8 1.68 8 1 8 C0.68675781 8.93392578 0.68675781 8.93392578 0.3671875 9.88671875 C-1.57934369 12.89549982 -3.43762421 13.02669404 -6.875 13.8125 C-7.92429688 14.06644531 -8.97359375 14.32039062 -10.0546875 14.58203125 C-12.82076345 14.97456457 -14.40362522 14.92190119 -17 14 C-17 13.34 -17 12.68 -17 12 C-13.04 12 -9.08 12 -5 12 C-5.33 11.01 -5.66 10.02 -6 9 C-4.35 8.67 -2.7 8.34 -1 8 C-0.67 5.36 -0.34 2.72 0 0 Z " fill="#66638E" transform="translate(154,159)"/>
<path d="M0 0 C0.33 0.99 0.66 1.98 1 3 C1.66 2.67 2.32 2.34 3 2 C5.125 2.4375 5.125 2.4375 7 3 C5.99290115 6.02129656 4.6522445 8.29031902 3 11 C2.67 11.70125 2.34 12.4025 2 13.125 C0.91504034 15.15929936 -0.37838919 16.37838919 -2 18 C-3.17574711 20.09989652 -3.17574711 20.09989652 -4 22 C-4.34833144 17.12335991 -3.41685712 14.22949995 -1 10 C-1.66 9.67 -2.32 9.34 -3 9 C-3.26218749 5.85375007 -3.24754367 4.38162983 -1.5 1.6875 C-1.005 1.130625 -0.51 0.57375 0 0 Z " fill="#615697" transform="translate(114,116)"/>
<path d="M0 0 C5.33963887 -0.47463457 5.33963887 -0.47463457 8 1.4375 C9.57435238 5.47177797 8.20036871 8.95847083 7 13 C5.02 12.01 3.04 11.02 1 10 C1.020625 9.278125 1.04125 8.55625 1.0625 7.8125 C1.00179441 5.08074862 0.60741465 2.65743909 0 0 Z " fill="#5B5195" transform="translate(170,117)"/>
<path d="M0 0 C0.66 1.65 1.32 3.3 2 5 C1.01 5 0.02 5 -1 5 C-1.66 6.65 -2.32 8.3 -3 10 C-3.66 10 -4.32 10 -5 10 C-5.433125 11.2065625 -5.433125 11.2065625 -5.875 12.4375 C-7 15 -7 15 -9 16 C-9 14.68 -9 13.36 -9 12 C-10.32 12.33 -11.64 12.66 -13 13 C-13 11 -13 11 -10.625 8.375 C-8 6 -8 6 -6 6 C-6 5.34 -6 4.68 -6 4 C-2.47058824 0 -2.47058824 0 0 0 Z " fill="#696392" transform="translate(141,81)"/>
<path d="M0 0 C1.32 0.33 2.64 0.66 4 1 C4 1.99 4 2.98 4 4 C3.34 4 2.68 4 2 4 C2 4.66 2 5.32 2 6 C-0.8221083 7.91903365 -2.12901932 7.99110212 -5.625 7.75 C-9 7 -9 7 -11 5 C-10.67 4.01 -10.34 3.02 -10 2 C-6.7 2 -3.4 2 0 2 C0 1.34 0 0.68 0 0 Z " fill="#665B9C" transform="translate(143,149)"/>
<path d="M0 0 C0.9075 0.33 1.815 0.66 2.75 1 C7.24289906 2.33225023 11.59083554 2.02153497 16.23046875 1.77734375 C19.41807351 2.03361099 20.67326249 2.87317311 23 5 C15.7405302 6.55960789 9.71522083 7.63276066 2.609375 5.1171875 C1 4 1 4 0.265625 1.8828125 C0.17796875 1.26148438 0.0903125 0.64015625 0 0 Z " fill="#4D4888" transform="translate(56,158)"/>
<path d="M0 0 C0.625 1.875 0.625 1.875 1 4 C0.34 4.66 -0.32 5.32 -1 6 C-1 7.32 -1 8.64 -1 10 C-2.5 11.75 -2.5 11.75 -4 13 C-3.34 13.66 -2.68 14.32 -2 15 C-2.99 15.495 -2.99 15.495 -4 16 C-6.1640625 15.22265625 -6.1640625 15.22265625 -8.625 14.0625 C-9.44226563 13.68222656 -10.25953125 13.30195313 -11.1015625 12.91015625 C-11.72804688 12.60980469 -12.35453125 12.30945313 -13 12 C-13 11.67 -13 11.34 -13 11 C-11.7315625 10.7834375 -11.7315625 10.7834375 -10.4375 10.5625 C-5.44775434 8.29443379 -3.07431567 4.42046572 0 0 Z " fill="#5F5695" transform="translate(100,141)"/>
<path d="M0 0 C0.33 0 0.66 0 1 0 C2.39049107 9.08785235 3.30892527 17.78372955 3 27 C2.01 27 1.02 27 0 27 C-1.12910914 21.47991087 -0.806617 16.55061554 -0.2578125 10.95703125 C0.06261917 7.28177705 0.07089008 3.68628391 0 0 Z " fill="#4B2C79" transform="translate(240,93)"/>
<path d="M0 0 C0.33 0 0.66 0 1 0 C1 4.62 1 9.24 1 14 C1.66 14.33 2.32 14.66 3 15 C3 16.65 3 18.3 3 20 C1 19 1 19 0.37890625 17.421875 C-0.15162875 14.03082655 -0.10454022 10.67142682 -0.0625 7.25 C-0.05798828 6.55261719 -0.05347656 5.85523438 -0.04882812 5.13671875 C-0.0371002 3.42444197 -0.01916653 1.71220967 0 0 Z M4 7 C5.33333333 7 6.66666667 7 8 7 C9.125 12.75 9.125 12.75 8 15 C6.35 14.67 4.7 14.34 3 14 C2.95745644 12.00045254 2.95919217 9.99958364 3 8 C3.33 7.67 3.66 7.34 4 7 Z " fill="#8D84B6" transform="translate(18,148)"/>
<path d="M0 0 C0.33 0.99 0.66 1.98 1 3 C-0.2065625 3.6496875 -0.2065625 3.6496875 -1.4375 4.3125 C-4.27846354 5.80474002 -4.27846354 5.80474002 -5 9 C-5.66 9 -6.32 9 -7 9 C-7 8.34 -7 7.68 -7 7 C-10.3 6.34 -13.6 5.68 -17 5 C-17 4.67 -17 4.34 -17 4 C-15.94039063 3.79503906 -14.88078125 3.59007812 -13.7890625 3.37890625 C-12.40101178 3.10692334 -11.01299256 2.83477956 -9.625 2.5625 C-8.92632812 2.42779297 -8.22765625 2.29308594 -7.5078125 2.15429688 C-3.64371266 1.4227578 -3.64371266 1.4227578 0 0 Z " fill="#5A4F8C" transform="translate(419,135)"/>
<path d="M0 0 C0.66 0.66 1.32 1.32 2 2 C1.7578125 4.1640625 1.7578125 4.1640625 1.125 6.625 C0.92132813 7.44226563 0.71765625 8.25953125 0.5078125 9.1015625 C0.34023437 9.72804687 0.17265625 10.35453125 0 11 C-0.66 11 -1.32 11 -2 11 C-2.33 12.32 -2.66 13.64 -3 15 C-3 13.68 -3 12.36 -3 11 C-3.66 10.67 -4.32 10.34 -5 10 C-4.67 9.34 -4.34 8.68 -4 8 C-4.99 8 -5.98 8 -7 8 C-7 7.34 -7 6.68 -7 6 C-6.360625 5.731875 -5.72125 5.46375 -5.0625 5.1875 C-2.66868314 4.11332248 -2.66868314 4.11332248 -2 1 C-1.34 0.67 -0.68 0.34 0 0 Z " fill="#50428F" transform="translate(138,133)"/>
<path d="M0 0 C1.32 0 2.64 0 4 0 C4 5.61 4 11.22 4 17 C2 14 2 14 2 11 C1.34 11 0.68 11 0 11 C-0.19406478 9.35492782 -0.38007935 7.70890406 -0.5625 6.0625 C-0.66691406 5.14597656 -0.77132813 4.22945313 -0.87890625 3.28515625 C-0.91886719 2.53105469 -0.95882813 1.77695313 -1 1 C-0.67 0.67 -0.34 0.34 0 0 Z " fill="#69648C" transform="translate(427,105)"/>
<path d="M0 0 C-0.33 3.63 -0.66 7.26 -1 11 C-1.33 10.34 -1.66 9.68 -2 9 C-3.65 10.32 -5.3 11.64 -7 13 C-7.33 12.34 -7.66 11.68 -8 11 C-7.06553465 8.96855359 -6.06775224 6.96466413 -5 5 C-5.66 5 -6.32 5 -7 5 C-7 4.01 -7 3.02 -7 2 C-2.25 0 -2.25 0 0 0 Z " fill="#3E337A" transform="translate(198,95)"/>
<path d="M0 0 C1.36421031 2.72842061 0.87807211 4.60953318 0.5625 7.625 C0.46066406 8.62789062 0.35882813 9.63078125 0.25390625 10.6640625 C0.17011719 11.43492188 0.08632812 12.20578125 0 13 C-1.32 13 -2.64 13 -4 13 C-4.33 13.99 -4.66 14.98 -5 16 C-5.66 14.35 -6.32 12.7 -7 11 C-6.34 10.34 -5.68 9.68 -5 9 C-4.67 8.34 -4.34 7.68 -4 7 C-2.68088303 4.65843494 -1.33806736 2.33082701 0 0 Z " fill="#453B6C" transform="translate(240,29)"/>
<path d="M0 0 C0.33 0 0.66 0 1 0 C0.49856014 3.72498181 0.00017122 7.37437934 -1 11 C-1.185625 11.7425 -1.37125 12.485 -1.5625 13.25 C-1.706875 13.8275 -1.85125 14.405 -2 15 C-2.66 14.34 -3.32 13.68 -4 13 C-4.66 12.67 -5.32 12.34 -6 12 C-6 9.03 -6 6.06 -6 3 C-5.67 3.99 -5.34 4.98 -5 6 C-4.34 6 -3.68 6 -3 6 C-3 5.01 -3 4.02 -3 3 C-2.01 3 -1.02 3 0 3 C0 2.01 0 1.02 0 0 Z " fill="#5E578D" transform="translate(165,139)"/>
<path d="M0 0 C0.625 2.375 0.625 2.375 1 5 C-1.2551922 7.2551922 -3.0047587 7.97723468 -6 9 C-6.99 9 -7.98 9 -9 9 C-8.38245741 7.68397477 -7.75571258 6.37226444 -7.125 5.0625 C-6.77695313 4.33160156 -6.42890625 3.60070312 -6.0703125 2.84765625 C-4.39977725 -0.03615096 -3.3088125 0 0 0 Z " fill="#4E3F8D" transform="translate(122,111)"/>
<path d="M0 0 C0.53625 0.391875 1.0725 0.78375 1.625 1.1875 C0.8125 3.125 0.8125 3.125 -0.375 5.1875 C-1.365 5.5175 -2.355 5.8475 -3.375 6.1875 C-4.035 5.8575 -4.695 5.5275 -5.375 5.1875 C-5.375 6.1775 -5.375 7.1675 -5.375 8.1875 C-6.035 8.1875 -6.695 8.1875 -7.375 8.1875 C-7.705 6.2075 -8.035 4.2275 -8.375 2.1875 C-2.95961538 -1.0125 -2.95961538 -1.0125 0 0 Z " fill="#544896" transform="translate(409.375,168.8125)"/>
<path d="M0 0 C0 3.96 0 7.92 0 12 C-0.33 11.34 -0.66 10.68 -1 10 C-3.02463255 9.34786708 -3.02463255 9.34786708 -5 9 C-5 6.36 -5 3.72 -5 1 C-1.125 0 -1.125 0 0 0 Z " fill="#4E4194" transform="translate(174,130)"/>
<path d="M0 0 C6.27 0 12.54 0 19 0 C19 0.66 19 1.32 19 2 C14.74433453 3.16063604 11.3164922 2.76173392 7 2 C7 2.66 7 3.32 7 4 C5.02 4 3.04 4 1 4 C0.67 2.68 0.34 1.36 0 0 Z " fill="#514A8C" transform="translate(130,169)"/>
<path d="M0 0 C-0.99 0.33 -1.98 0.66 -3 1 C-4.05021103 2.84971696 -4.05021103 2.84971696 -5 5 C-6.4375 7.25 -6.4375 7.25 -8 9 C-8.99 9 -9.98 9 -11 9 C-11 7.35 -11 5.7 -11 4 C-10.360625 3.87625 -9.72125 3.7525 -9.0625 3.625 C-8.381875 3.41875 -7.70125 3.2125 -7 3 C-6.67 2.34 -6.34 1.68 -6 1 C-6.99 0.67 -7.98 0.34 -9 0 C-5.93109813 -1.53445094 -3.29905734 -0.54984289 0 0 Z " fill="#4B447F" transform="translate(152,119)"/>
<path d="M0 0 C0.66 0.33 1.32 0.66 2 1 C2.3721042 2.32303717 2.70630173 3.65737935 3 5 C3.33 5.33 3.66 5.66 4 6 C4.14115161 8.67058851 4.04247107 11.32432238 4 14 C3.34 14 2.68 14 2 14 C1.67 13.34 1.34 12.68 1 12 C0.34 12 -0.32 12 -1 12 C-0.90234375 9.98177083 -0.8046875 7.96354167 -0.70703125 5.9453125 C-0.80371094 5.30335938 -0.90039062 4.66140625 -1 4 C-1.99 3.34 -2.98 2.68 -4 2 C-2.125 0.9375 -2.125 0.9375 0 0 Z " fill="#685BA3" transform="translate(21,140)"/>
<path d="M0 0 C0.66 0 1.32 0 2 0 C2.625 2.8125 2.625 2.8125 3 6 C2.01 7.485 2.01 7.485 1 9 C-1.625 9.1875 -1.625 9.1875 -4 9 C-3.4039572 5.32440274 -2.74227152 2.74227152 0 0 Z " fill="#4C457A" transform="translate(156,86)"/>
<path d="M0 0 C3.3 0 6.6 0 10 0 C10 0.99 10 1.98 10 3 C10.66 3.33 11.32 3.66 12 4 C11.01 5.32 10.02 6.64 9 8 C8.67 7.01 8.34 6.02 8 5 C6.68 5 5.36 5 4 5 C3.67 4.01 3.34 3.02 3 2 C2.01 1.34 1.02 0.68 0 0 Z " fill="#665B95" transform="translate(145,117)"/>
<path d="M0 0 C-0.75 7.75 -0.75 7.75 -3 10 C-4.32 9.34 -5.64 8.68 -7 8 C-3.8 0 -3.8 0 0 0 Z " fill="#70669C" transform="translate(26,90)"/>
<path d="M0 0 C0.99 0 1.98 0 3 0 C4.32 2.97 5.64 5.94 7 9 C6.01 9.495 6.01 9.495 5 10 C4.34 9.01 3.68 8.02 3 7 C0.69 7.66 -1.62 8.32 -4 9 C-2.80100302 5.9168649 -1.52299523 2.93720508 0 0 Z " fill="#6A5E99" transform="translate(406,162)"/>
<path d="M0 0 C0.433125 0.9590625 0.433125 0.9590625 0.875 1.9375 C1.82823451 4.15206079 1.82823451 4.15206079 4 5 C4.25 12.5 4.25 12.5 2 17 C1.67 13.7 1.34 10.4 1 7 C-0.32 7 -1.64 7 -3 7 C-2.690625 6.401875 -2.38125 5.80375 -2.0625 5.1875 C-0.89790296 2.91043228 -0.89790296 2.91043228 0 0 Z " fill="#665B9E" transform="translate(172,124)"/>
<path d="M0 0 C0.33 0 0.66 0 1 0 C1 2.31 1 4.62 1 7 C1.66 7 2.32 7 3 7 C3.99 11.95 4.98 16.9 6 22 C5.34 22.33 4.68 22.66 4 23 C3.87882812 22.38511719 3.75765625 21.77023438 3.6328125 21.13671875 C3.46523438 20.32847656 3.29765625 19.52023438 3.125 18.6875 C2.88136719 17.48673828 2.88136719 17.48673828 2.6328125 16.26171875 C2.05521001 13.74698882 2.05521001 13.74698882 0 11 C-0.1953125 8.30078125 -0.1953125 8.30078125 -0.125 5.3125 C-0.10695313 4.31863281 -0.08890625 3.32476562 -0.0703125 2.30078125 C-0.04710937 1.54152344 -0.02390625 0.78226562 0 0 Z " fill="#3F337A" transform="translate(426,109)"/>
<path d="M0 0 C0.33 0 0.66 0 1 0 C1.22281874 1.91503674 1.42771076 3.83216506 1.625 5.75 C1.74101563 6.81734375 1.85703125 7.8846875 1.9765625 8.984375 C2.00029475 12.03792399 1.61420985 13.46162421 0 16 C-0.66 16 -1.32 16 -2 16 C-2.05449838 14.27119018 -2.09301688 12.54187288 -2.125 10.8125 C-2.14820312 9.84957031 -2.17140625 8.88664062 -2.1953125 7.89453125 C-1.9913544 4.87187222 -1.26874632 2.73230015 0 0 Z " fill="#6D6497" transform="translate(92,86)"/>
<path d="M0 0 C0.66 0.33 1.32 0.66 2 1 C1.67 3.31 1.34 5.62 1 8 C0.360625 8.12375 -0.27875 8.2475 -0.9375 8.375 C-1.618125 8.58125 -2.29875 8.7875 -3 9 C-3.33 9.66 -3.66 10.32 -4 11 C-4 10.34 -4 9.68 -4 9 C-5.98 9 -7.96 9 -10 9 C-9.34 8.67 -8.68 8.34 -8 8 C-8 7.34 -8 6.68 -8 6 C-5.36 6 -2.72 6 0 6 C0 4.02 0 2.04 0 0 Z " fill="#5E5494" transform="translate(120,103)"/>
<path d="M0 0 C-0.45375 0.515625 -0.9075 1.03125 -1.375 1.5625 C-3.38200383 4.57300574 -4.12731809 7.50927237 -5 11 C-5.66 11 -6.32 11 -7 11 C-6.67 8.36 -6.34 5.72 -6 3 C-6.99 3 -7.98 3 -9 3 C-9 2.01 -9 1.02 -9 0 C-5.67465243 -1.10844919 -3.37817425 -0.84454356 0 0 Z " fill="#605693" transform="translate(195,99)"/>
<path d="M0 0 C2 2 2 2 2.125 5.125 C2.08375 6.07375 2.0425 7.0225 2 8 C1.01 8.33 0.02 8.66 -1 9 C-1.33 8.01 -1.66 7.02 -2 6 C-2.99 6.66 -3.98 7.32 -5 8 C-5.36625971 3.48279689 -5.36625971 3.48279689 -3.625 1.1875 C-2 0 -2 0 0 0 Z " fill="#4D4270" transform="translate(477,29)"/>
<path d="M0 0 C1.65 0 3.3 0 5 0 C5.33 0.66 5.66 1.32 6 2 C5.0625 4.625 5.0625 4.625 4 7 C3.34 6.01 2.68 5.02 2 4 C1.525625 4.825 1.05125 5.65 0.5625 6.5 C0.046875 7.325 -0.46875 8.15 -1 9 C-1.33 9 -1.66 9 -2 9 C-1.125 2.25 -1.125 2.25 0 0 Z " fill="#635896" transform="translate(27,119)"/>
<path d="M0 0 C0.66 0 1.32 0 2 0 C3.35439668 2.70879335 3.06501451 5.00933268 3 8 C2.01 8 1.02 8 0 8 C-0.33 6.68 -0.66 5.36 -1 4 C-2.65 3.67 -4.3 3.34 -6 3 C-6 2.34 -6 1.68 -6 1 C-3.03 1.495 -3.03 1.495 0 2 C0 1.34 0 0.68 0 0 Z " fill="#51478B" transform="translate(176,108)"/>
<path d="M0 0 C5.0302076 0.52537724 10.01885239 1.10594786 15 2 C13.68 3.32 12.36 4.64 11 6 C10.01 5.34 9.02 4.68 8 4 C7.01 4.495 7.01 4.495 6 5 C6 4.34 6 3.68 6 3 C3.03 2.505 3.03 2.505 0 2 C0 1.34 0 0.68 0 0 Z " fill="#6B63A4" transform="translate(36,174)"/>
<path d="M0 0 C0.99 0.33 1.98 0.66 3 1 C3.33 1.99 3.66 2.98 4 4 C3.01 5.485 3.01 5.485 2 7 C-0.31 6.34 -2.62 5.68 -5 5 C-4.67 3.68 -4.34 2.36 -4 1 C-3.67 1.66 -3.34 2.32 -3 3 C-2.01 2.01 -1.02 1.02 0 0 Z " fill="#594F93" transform="translate(107,160)"/>
<path d="M0 0 C3 -0.3125 3 -0.3125 6 0 C6.66 0.66 7.32 1.32 8 2 C6.02 2.33 4.04 2.66 2 3 C2 3.99 2 4.98 2 6 C1.34 6 0.68 6 0 6 C-0.33 6.66 -0.66 7.32 -1 8 C-1.625 5.6875 -1.625 5.6875 -2 3 C-1.34 2.01 -0.68 1.02 0 0 Z " fill="#6E699E" transform="translate(56,152)"/>
<path d="M0 0 C0.99 0.33 1.98 0.66 3 1 C2.95875 1.78375 2.9175 2.5675 2.875 3.375 C2.71271266 6.16116119 2.71271266 6.16116119 5 8 C2.69 8 0.38 8 -2 8 C-2.125 5.125 -2.125 5.125 -2 2 C-1.34 1.34 -0.68 0.68 0 0 Z " fill="#53469C" transform="translate(183,146)"/>
<path d="M0 0 C0.33 1.32 0.66 2.64 1 4 C-1.64 6.31 -4.28 8.62 -7 11 C-7.33 9.68 -7.66 8.36 -8 7 C-7.34 7 -6.68 7 -6 7 C-6 6.34 -6 5.68 -6 5 C-4.04072937 3.2856382 -2.04119788 1.61594832 0 0 Z " fill="#625999" transform="translate(230,163)"/>
<path d="M0 0 C0.99 1.32 1.98 2.64 3 4 C2.67 4.33 2.34 4.66 2 5 C2.66 5.66 3.32 6.32 4 7 C3.01 7.495 3.01 7.495 2 8 C-0.1640625 7.22265625 -0.1640625 7.22265625 -2.625 6.0625 C-3.44226563 5.68222656 -4.25953125 5.30195313 -5.1015625 4.91015625 C-6.04128906 4.45962891 -6.04128906 4.45962891 -7 4 C-7 3.67 -7 3.34 -7 3 C-5.5459375 2.5359375 -5.5459375 2.5359375 -4.0625 2.0625 C-1.15934208 1.30476658 -1.15934208 1.30476658 0 0 Z " fill="#7068A0" transform="translate(94,149)"/>
<path d="M0 0 C0.66 0 1.32 0 2 0 C2.33 1.32 2.66 2.64 3 4 C-1.29 4.66 -5.58 5.32 -10 6 C-10.33 5.01 -10.66 4.02 -11 3 C-7.04 3 -3.08 3 1 3 C0.67 2.01 0.34 1.02 0 0 Z " fill="#727097" transform="translate(148,168)"/>
<path d="M0 0 C0.33 0.66 0.66 1.32 1 2 C-2.65333143 4.63379708 -5.48521602 6.46884894 -10 7 C-8.9375 4.625 -8.9375 4.625 -7 2 C-3.3125 0.6875 -3.3125 0.6875 0 0 Z " fill="#463C77" transform="translate(150,77)"/>
<path d="M0 0 C0.33 0.66 0.66 1.32 1 2 C1.99 2 2.98 2 4 2 C4 2.99 4 3.98 4 5 C3.01 5.33 2.02 5.66 1 6 C0.67 5.67 0.34 5.34 0 5 C-0.66 6.32 -1.32 7.64 -2 9 C-2.33 6.69 -2.66 4.38 -3 2 C-2.01 1.34 -1.02 0.68 0 0 Z " fill="#504390" transform="translate(187,123)"/>
<path d="M0 0 C0.66 0.33 1.32 0.66 2 1 C2 4.3 2 7.6 2 11 C1.01 11 0.02 11 -1 11 C-1.0270043 9.54176788 -1.04639787 8.08339325 -1.0625 6.625 C-1.07410156 5.81289063 -1.08570313 5.00078125 -1.09765625 4.1640625 C-1 2 -1 2 0 0 Z " fill="#292768" transform="translate(241,29)"/>
<path d="M0 0 C3.4375 0.8125 3.4375 0.8125 7 2 C7.33 2.99 7.66 3.98 8 5 C8.66 5.33 9.32 5.66 10 6 C2.25 5.25 2.25 5.25 0 3 C0 2.01 0 1.02 0 0 Z " fill="#58549A" transform="translate(56,158)"/>
<path d="M0 0 C0.99 0.33 1.98 0.66 3 1 C2.67 3.31 2.34 5.62 2 8 C0.68 7.34 -0.64 6.68 -2 6 C-1.125 1.125 -1.125 1.125 0 0 Z " fill="#483C87" transform="translate(175,122)"/>
<path d="M0 0 C2 2 2 2 2.1953125 4.71484375 C2.17210937 5.77832031 2.14890625 6.84179688 2.125 7.9375 C2.10695313 8.99839844 2.08890625 10.05929688 2.0703125 11.15234375 C2.03550781 12.56193359 2.03550781 12.56193359 2 14 C2 14.99 2 15.98 2 17 C2 17.66 2 18.32 2 19 C1.34 19 0.68 19 0 19 C0 12.73 0 6.46 0 0 Z " fill="#433A81" transform="translate(470,116)"/>
<path d="M0 0 C1.32 0.99 2.64 1.98 4 3 C1.08291076 4.98362069 -0.12380904 4.9876191 -3.75 4.625 C-4.8225 4.41875 -5.895 4.2125 -7 4 C-4.68143083 2.45428722 -2.49361571 1.20381448 0 0 Z " fill="#5E558C" transform="translate(137,103)"/>
<path d="M0 0 C1.32 0 2.64 0 4 0 C4.625 2.3125 4.625 2.3125 5 5 C4.01 6.485 4.01 6.485 3 8 C2.01 7.67 1.02 7.34 0 7 C0.2784375 6.1028125 0.2784375 6.1028125 0.5625 5.1875 C1.22093687 2.83591238 1.22093687 2.83591238 0 0 Z " fill="#594F98" transform="translate(154,159)"/>
<path d="M0 0 C0.99 0 1.98 0 3 0 C3 1.98 3 3.96 3 6 C1.02 6.33 -0.96 6.66 -3 7 C-2.34 6.67 -1.68 6.34 -1 6 C-1.0309375 4.7934375 -1.0309375 4.7934375 -1.0625 3.5625 C-1 1 -1 1 0 0 Z " fill="#494080" transform="translate(129,93)"/>
<path d="M0 0 C-3 2 -3 2 -6 2 C-6 2.66 -6 3.32 -6 4 C-7.98 4.33 -9.96 4.66 -12 5 C-12 4.01 -12 3.02 -12 2 C-7.8803623 0.70756464 -4.33168317 -0.26252625 0 0 Z " fill="#8F89B7" transform="translate(223,186)"/>
<path d="M0 0 C0 0.33 0 0.66 0 1 C-1.2065625 1.185625 -1.2065625 1.185625 -2.4375 1.375 C-3.283125 1.58125 -4.12875 1.7875 -5 2 C-5.33 2.66 -5.66 3.32 -6 4 C-9.3 3.67 -12.6 3.34 -16 3 C-16 2.67 -16 2.34 -16 2 C-10.54538831 0.61470179 -5.63281599 -0.2396943 0 0 Z " fill="#8A86BA" transform="translate(85,151)"/>
<path d="M0 0 C0.66 0.66 1.32 1.32 2 2 C1.625 4.125 1.625 4.125 1 6 C-0.875 5.75 -0.875 5.75 -3 5 C-4.25 2.9375 -4.25 2.9375 -5 1 C-2.625 0.375 -2.625 0.375 0 0 Z " fill="#7D76AB" transform="translate(400,171)"/>
<path d="M0 0 C0.33 0 0.66 0 1 0 C0.67 3.3 0.34 6.6 0 10 C0.66 10.33 1.32 10.66 2 11 C0.625 13 0.625 13 -1 15 C-1.66 15 -2.32 15 -3 15 C-2.01 10.05 -1.02 5.1 0 0 Z " fill="#4E4381" transform="translate(154,125)"/>
<path d="M0 0 C0.33 0 0.66 0 1 0 C1.33 3.3 1.66 6.6 2 10 C0.68 9.34 -0.64 8.68 -2 8 C-2.20086443 4.28400809 -2.1519437 3.22791555 0 0 Z " fill="#4F4680" transform="translate(95,95)"/>
<path d="M0 0 C0.99 0 1.98 0 3 0 C2.67 1.65 2.34 3.3 2 5 C2.66 5.33 3.32 5.66 4 6 C1.36 5.67 -1.28 5.34 -4 5 C-3.67 4.34 -3.34 3.68 -3 3 C-2.34 3 -1.68 3 -1 3 C-0.67 2.01 -0.34 1.02 0 0 Z M0 3 C1 5 1 5 1 5 Z " fill="#62598D" transform="translate(129,99)"/>
<path d="M0 0 C0.66 0.66 1.32 1.32 2 2 C1.625 5.625 1.625 5.625 1 9 C0.34 9 -0.32 9 -1 9 C-2.35439668 6.29120665 -2.06501451 3.99066732 -2 1 C-1.34 0.67 -0.68 0.34 0 0 Z " fill="#4B3F7C" transform="translate(294,81)"/>
<path d="M0 0 C0.99 0 1.98 0 3 0 C3.33 1.65 3.66 3.3 4 5 C2.68 5.99 1.36 6.98 0 8 C-0.79953138 4.71303767 -1.09658936 3.28976808 0 0 Z " fill="#35275D" transform="translate(482,46)"/>
<path d="M0 0 C0 3.63 0 7.26 0 11 C-0.66 11 -1.32 11 -2 11 C-2.33 7.7 -2.66 4.4 -3 1 C-1 0 -1 0 0 0 Z " fill="#645E7D" transform="translate(471,6)"/>
<path d="M0 0 C0.99 0.66 1.98 1.32 3 2 C2.34 2 1.68 2 1 2 C1 2.66 1 3.32 1 4 C0.34 4 -0.32 4 -1 4 C-1 4.66 -1 5.32 -1 6 C-3.31 6 -5.62 6 -8 6 C-8.33 5.34 -8.66 4.68 -9 4 C-4.545 3.505 -4.545 3.505 0 3 C0 2.01 0 1.02 0 0 Z " fill="#6A61A3" transform="translate(226,180)"/>
<path d="M0 0 C1.98 0 3.96 0 6 0 C6 0.99 6 1.98 6 3 C3.69 3.33 1.38 3.66 -1 4 C-0.67 2.68 -0.34 1.36 0 0 Z " fill="#72699C" transform="translate(414,172)"/>
<path d="M0 0 C2.97 0.495 2.97 0.495 6 1 C5.01 1.33 4.02 1.66 3 2 C3.33 3.32 3.66 4.64 4 6 C1.03 5.505 1.03 5.505 -2 5 C-1.34 3.35 -0.68 1.7 0 0 Z " fill="#726FA2" transform="translate(127,167)"/>
<path d="M0 0 C1.32 0.33 2.64 0.66 4 1 C4 1.99 4 2.98 4 4 C3.34 4 2.68 4 2 4 C2 4.66 2 5.32 2 6 C1.01 5.67 0.02 5.34 -1 5 C-1 4.34 -1 3.68 -1 3 C-1.66 2.67 -2.32 2.34 -3 2 C-2.01 2 -1.02 2 0 2 C0 1.34 0 0.68 0 0 Z " fill="#7166AA" transform="translate(143,149)"/>
<path d="M0 0 C0.66 0.33 1.32 0.66 2 1 C1.67 2.98 1.34 4.96 1 7 C0.34 6.67 -0.32 6.34 -1 6 C-1.66 6.66 -2.32 7.32 -3 8 C-3.1875 5.125 -3.1875 5.125 -3 2 C-2.01 1.34 -1.02 0.68 0 0 Z " fill="#7067A1" transform="translate(177,147)"/>
<path d="M0 0 C0.33 0.66 0.66 1.32 1 2 C1.66 2 2.32 2 3 2 C3 4.31 3 6.62 3 9 C2.34 8.01 1.68 7.02 1 6 C0.01 6.495 0.01 6.495 -1 7 C-1.625 4.625 -1.625 4.625 -2 2 C-1.34 1.34 -0.68 0.68 0 0 Z " fill="#514C7F" transform="translate(147,145)"/>
<path d="M0 0 C0.33 0.99 0.66 1.98 1 3 C-1.70879335 4.35439668 -4.00933268 4.06501451 -7 4 C-7.33 3.01 -7.66 2.02 -8 1 C-2.25 0 -2.25 0 0 0 Z " fill="#7970A1" transform="translate(465,137)"/>
<path d="M0 0 C0.66 0.33 1.32 0.66 2 1 C2 3.64 2 6.28 2 9 C1.34 9 0.68 9 0 9 C-0.66 8.34 -1.32 7.68 -2 7 C-1.60467975 4.54901444 -0.78698574 2.36095721 0 0 Z " fill="#483E81" transform="translate(475,128)"/>
<path d="M0 0 C0.99 0.33 1.98 0.66 3 1 C3.33 2.98 3.66 4.96 4 7 C2.35 6.67 0.7 6.34 -1 6 C-0.67 4.02 -0.34 2.04 0 0 Z " fill="#71679B" transform="translate(388,165)"/>
<path d="M0 0 C1.65 0 3.3 0 5 0 C5 0.66 5 1.32 5 2 C4.34 2 3.68 2 3 2 C3.33 3.65 3.66 5.3 4 7 C3.01 6.67 2.02 6.34 1 6 C1 5.01 1 4.02 1 3 C0.34 3 -0.32 3 -1 3 C-0.67 2.01 -0.34 1.02 0 0 Z " fill="#574E8B" transform="translate(95,156)"/>
<path d="M0 0 C2.45234885 0.98093954 3.7809268 1.68703828 5.3125 3.875 C6.1132654 6.35009306 5.86325845 7.58287634 5 10 C4.54625 9.195625 4.0925 8.39125 3.625 7.5625 C2.25274335 4.91143428 2.25274335 4.91143428 0 4 C0 2.68 0 1.36 0 0 Z " fill="#473C84" transform="translate(182,135)"/>
<path d="M0 0 C2 2 2 2 3 4 C1.6875 6.625 1.6875 6.625 0 9 C-0.66 9 -1.32 9 -2 9 C-1.125 1.125 -1.125 1.125 0 0 Z " fill="#4D3F97" transform="translate(111,123)"/>
<path d="M0 0 C3 2 3 2 3.6875 4.125 C3.790625 4.74375 3.89375 5.3625 4 6 C0.75791433 5.64950425 -0.61527704 5.43778819 -2.8125 2.9375 C-3.4003125 1.9784375 -3.4003125 1.9784375 -4 1 C-3.01 1.33 -2.02 1.66 -1 2 C-0.67 1.34 -0.34 0.68 0 0 Z " fill="#62588F" transform="translate(97,102)"/>
<path d="M0 0 C0.33 0.99 0.66 1.98 1 3 C2.97536745 2.65213292 2.97536745 2.65213292 5 2 C5.33 1.34 5.66 0.68 6 0 C6.33 1.32 6.66 2.64 7 4 C5.68 4 4.36 4 3 4 C2.67 4.99 2.34 5.98 2 7 C1.34 6.67 0.68 6.34 0 6 C0 4.02 0 2.04 0 0 Z " fill="#4B446C" transform="translate(432,44)"/>
<path d="M0 0 C1.98 0.495 1.98 0.495 4 1 C3.34 2.98 2.68 4.96 2 7 C0.4375 5.75 0.4375 5.75 -1 4 C-0.6875 1.8125 -0.6875 1.8125 0 0 Z " fill="#3C347B" transform="translate(179,106)"/>
<path d="M0 0 C2.475 0.495 2.475 0.495 5 1 C4.34 2.32 3.68 3.64 3 5 C2.01 5 1.02 5 0 5 C0 3.35 0 1.7 0 0 Z " fill="#4D3B90" transform="translate(141,123)"/>
<path d="M0 0 C0.33 0 0.66 0 1 0 C1.04898437 0.59167969 1.09796875 1.18335937 1.1484375 1.79296875 C1.56456867 6.19104472 2.04965595 9.96928897 4 14 C3.34 14 2.68 14 2 14 C2 13.34 2 12.68 2 12 C1.34 12 0.68 12 0 12 C0 8.04 0 4.08 0 0 Z " fill="#60529A" transform="translate(17,111)"/>
<path d="M0 0 C1.98 0.66 3.96 1.32 6 2 C3.08235 3.9451 1.37462715 4.45276317 -2 5 C-1.34 3.35 -0.68 1.7 0 0 Z " fill="#4A407E" transform="translate(128,106)"/>
<path d="M0 0 C5.75 -0.125 5.75 -0.125 8 1 C8 1.99 8 2.98 8 4 C6.35 3.67 4.7 3.34 3 3 C3 2.34 3 1.68 3 1 C2.01 0.67 1.02 0.34 0 0 Z " fill="#827BB2" transform="translate(34,187)"/>
<path d="M0 0 C0 0.99 0 1.98 0 3 C0.99 3.33 1.98 3.66 3 4 C2.67 4.66 2.34 5.32 2 6 C-0.31 5.01 -2.62 4.02 -5 3 C-2.25 0 -2.25 0 0 0 Z " fill="#7B7AA7" transform="translate(382,175)"/>
<path d="M0 0 C0.99 0 1.98 0 3 0 C2.67 1.98 2.34 3.96 2 6 C1.34 6 0.68 6 0 6 C-0.38218767 4.34385343 -0.71395102 2.67542976 -1 1 C-0.67 0.67 -0.34 0.34 0 0 Z " fill="#58529F" transform="translate(21,162)"/>
<path d="M0 0 C0.99 0.33 1.98 0.66 3 1 C2.67 2.65 2.34 4.3 2 6 C1.67 5.34 1.34 4.68 1 4 C0.34 4 -0.32 4 -1 4 C-1.33 4.66 -1.66 5.32 -2 6 C-1.49396008 3.83125748 -1.00016187 2.00032373 0 0 Z " fill="#736CA1" transform="translate(149,139)"/>
<path d="M0 0 C0.66 0 1.32 0 2 0 C2.625 1.8125 2.625 1.8125 3 4 C2.01 5.485 2.01 5.485 1 7 C0.01 6.34 -0.98 5.68 -2 5 C-1.34 3.35 -0.68 1.7 0 0 Z " fill="#675E96" transform="translate(133,133)"/>
<path d="M0 0 C0.33 0.66 0.66 1.32 1 2 C1.99 2 2.98 2 4 2 C3.34 3.32 2.68 4.64 2 6 C1.34 5.67 0.68 5.34 0 5 C0 4.34 0 3.68 0 3 C-0.99 2.67 -1.98 2.34 -3 2 C-2.01 1.34 -1.02 0.68 0 0 Z " fill="#5B5885" transform="translate(151,93)"/>
<path d="M0 0 C0.99 0.33 1.98 0.66 3 1 C3 2.65 3 4.3 3 6 C2.67 6 2.34 6 2 6 C1.67 7.65 1.34 9.3 1 11 C0.67 11 0.34 11 0 11 C0 7.37 0 3.74 0 0 Z " fill="#534E8B" transform="translate(93,85)"/>
<path d="M0 0 C1.32 0 2.64 0 4 0 C2.95125002 2.62187494 2.35068687 3.79371361 -0.125 5.25 C-0.74375 5.4975 -1.3625 5.745 -2 6 C-1.34 4.02 -0.68 2.04 0 0 Z " fill="#362F5A" transform="translate(446,26)"/>
<path d="M0 0 C0 0.99 0 1.98 0 3 C-2.31 3.66 -4.62 4.32 -7 5 C-7 4.01 -7 3.02 -7 2 C-2.25 0 -2.25 0 0 0 Z " fill="#504A7A" transform="translate(198,95)"/>
<path d="M0 0 C0 1.32 0 2.64 0 4 C-1.65 4 -3.3 4 -5 4 C-5 3.01 -5 2.02 -5 1 C-3 0 -3 0 0 0 Z " fill="#47387A" transform="translate(157,91)"/>
<path d="M0 0 C0.99 0.33 1.98 0.66 3 1 C2.67 2.65 2.34 4.3 2 6 C1.01 5.67 0.02 5.34 -1 5 C-1.33 4.01 -1.66 3.02 -2 2 C-1.34 1.34 -0.68 0.68 0 0 Z " fill="#53458A" transform="translate(412,171)"/>
<path d="M0 0 C1.98 0 3.96 0 6 0 C5.01 1.485 5.01 1.485 4 3 C1.375 3.1875 1.375 3.1875 -1 3 C-0.67 2.01 -0.34 1.02 0 0 Z " fill="#635E8D" transform="translate(182,154)"/>
<path d="M0 0 C0.33 0 0.66 0 1 0 C1 1.98 1 3.96 1 6 C-0.32 6.33 -1.64 6.66 -3 7 C-1.125 1.125 -1.125 1.125 0 0 Z " fill="#483A84" transform="translate(474,140)"/>
<path d="M0 0 C-0.33 1.65 -0.66 3.3 -1 5 C-2.32 5.33 -3.64 5.66 -5 6 C-5.33 5.34 -5.66 4.68 -6 4 C-2.25 0 -2.25 0 0 0 Z " fill="#4A3F81" transform="translate(426,141)"/>
<path d="M0 0 C-0.66 1.32 -1.32 2.64 -2 4 C-2.66 3.67 -3.32 3.34 -4 3 C-6.3329866 2.95977609 -8.66706666 2.95679753 -11 3 C-11 2.67 -11 2.34 -11 2 C-9.5422647 1.664061 -8.08378894 1.33133376 -6.625 1 C-5.40683594 0.7215625 -5.40683594 0.7215625 -4.1640625 0.4375 C-2 0 -2 0 0 0 Z " fill="#645D8A" transform="translate(154,75)"/>
<path d="M0 0 C0.33 0 0.66 0 1 0 C1 3.3 1 6.6 1 10 C0.67 10 0.34 10 0 10 C0 6.7 0 3.4 0 0 Z " fill="#8479AF" transform="translate(20,111)"/>
<path d="M0 0 C0.33 0 0.66 0 1 0 C1 2.97 1 5.94 1 9 C0.67 9 0.34 9 0 9 C0 6.03 0 3.06 0 0 Z " fill="#0E0843" transform="translate(26,145)"/>
<path d="M0 0 C0.33 0 0.66 0 1 0 C1 2.97 1 5.94 1 9 C0.67 9 0.34 9 0 9 C0 6.03 0 3.06 0 0 Z " fill="#534886" transform="translate(139,142)"/>
<path d="M0 0 C0.33 0 0.66 0 1 0 C1 2.97 1 5.94 1 9 C0.67 9 0.34 9 0 9 C0 6.03 0 3.06 0 0 Z " fill="#3D327A" transform="translate(297,97)"/>
<path d="M0 0 C0.33 0 0.66 0 1 0 C1 2.64 1 5.28 1 8 C0.67 8 0.34 8 0 8 C0 5.36 0 2.72 0 0 Z " fill="#615B8D" transform="translate(129,141)"/>
<path d="M0 0 C1.98 0 3.96 0 6 0 C6 0.33 6 0.66 6 1 C4.02 1 2.04 1 0 1 C0 0.67 0 0.34 0 0 Z " fill="#494881" transform="translate(64,159)"/>
<path d="M0 0 C0.33 0 0.66 0 1 0 C1 1.98 1 3.96 1 6 C0.67 6 0.34 6 0 6 C0 4.02 0 2.04 0 0 Z " fill="#433A69" transform="translate(424,111)"/>
<path d="M0 0 C0.99 0.33 1.98 0.66 3 1 C2.01 1.33 1.02 1.66 0 2 C0 1.34 0 0.68 0 0 Z " fill="#514B99" transform="translate(77,156)"/>
<path d="M0 0 C0.33 0 0.66 0 1 0 C1 1.65 1 3.3 1 5 C0.67 5 0.34 5 0 5 C0 3.35 0 1.7 0 0 Z " fill="#5D5099" transform="translate(243,151)"/>
<path d="M0 0 C1.65 0 3.3 0 5 0 C5 0.33 5 0.66 5 1 C3.35 1 1.7 1 0 1 C0 0.67 0 0.34 0 0 Z " fill="#342B61" transform="translate(449,137)"/>
<path d="M0 0 C0.33 0 0.66 0 1 0 C1 1.65 1 3.3 1 5 C0.67 5 0.34 5 0 5 C0 3.35 0 1.7 0 0 Z " fill="#433D6D" transform="translate(162,128)"/>
<path d="M0 0 C1.32 0 2.64 0 4 0 C3.67 0.66 3.34 1.32 3 2 C2.01 1.34 1.02 0.68 0 0 Z " fill="#685FA7" transform="translate(111,113)"/>
<path d="M0 0 C0.33 0 0.66 0 1 0 C1 1.65 1 3.3 1 5 C0.67 5 0.34 5 0 5 C0 3.35 0 1.7 0 0 Z " fill="#7C7398" transform="translate(88,92)"/>
<path d="M0 0 C0.33 0 0.66 0 1 0 C1 1.65 1 3.3 1 5 C0.67 5 0.34 5 0 5 C0 3.35 0 1.7 0 0 Z " fill="#3B355E" transform="translate(430,44)"/>
<path d="M0 0 C4 1 4 1 4 1 Z " fill="#5A5583" transform="translate(204,193)"/>
<path d="M0 0 C1 4 1 4 1 4 Z " fill="#595090" transform="translate(242,157)"/>
<path d="M0 0 C1 4 1 4 1 4 Z " fill="#515389" transform="translate(175,141)"/>
<path d="M0 0 C1 4 1 4 1 4 Z " fill="#43477F" transform="translate(160,138)"/>
<path d="M0 0 C1 4 1 4 1 4 Z " fill="#524886" transform="translate(27,138)"/>
<path d="M0 0 C1 4 1 4 1 4 Z " fill="#4D4B75" transform="translate(182,125)"/>
<path d="M0 0 C1 4 1 4 1 4 Z " fill="#5E5386" transform="translate(184,116)"/>
<path d="M0 0 C4 1 4 1 4 1 Z " fill="#554993" transform="translate(148,115)"/>
<path d="M0 0 C4 1 4 1 4 1 Z " fill="#4E4989" transform="translate(106,112)"/>
<path d="M0 0 C1 4 1 4 1 4 Z " fill="#463E79" transform="translate(296,108)"/>
<path d="M0 0 C4 1 4 1 4 1 Z " fill="#4F467D" transform="translate(127,111)"/>
<path d="M0 0 C1 4 1 4 1 4 Z " fill="#453B78" transform="translate(197,106)"/>
<path d="M0 0 C1 4 1 4 1 4 Z " fill="#59567E" transform="translate(186,108)"/>
<path d="M0 0 C1 4 1 4 1 4 Z " fill="#73708B" transform="translate(432,107)"/>
<path d="M0 0 C4 1 4 1 4 1 Z " fill="#372D76" transform="translate(280,107)"/>
<path d="M0 0 C1 4 1 4 1 4 Z " fill="#403B6A" transform="translate(187,103)"/>
<path d="M0 0 C1 4 1 4 1 4 Z " fill="#403584" transform="translate(198,98)"/>
<path d="M0 0 C4 1 4 1 4 1 Z " fill="#483F75" transform="translate(153,79)"/>
<path d="M0 0 C4 1 4 1 4 1 Z " fill="#49416F" transform="translate(153,73)"/>
<path d="M0 0 C3 1 3 1 3 1 Z " fill="#5C557D" transform="translate(45,193)"/>
<path d="M0 0 C3 1 3 1 3 1 Z " fill="#4D4976" transform="translate(414,177)"/>
<path d="M0 0 C3 1 3 1 3 1 Z " fill="#47437A" transform="translate(45,174)"/>
<path d="M0 0 C3 1 3 1 3 1 Z " fill="#5B5494" transform="translate(397,170)"/>
<path d="" fill="#1C1751" transform="translate(0,0)"/>
<path d="" fill="#504593" transform="translate(0,0)"/>
<path d="" fill="#564C89" transform="translate(0,0)"/>
<path d="M0 0 C3 1 3 1 3 1 Z " fill="#37365B" transform="translate(182,158)"/>
<path d="M0 0 C3 1 3 1 3 1 Z " fill="#3B355B" transform="translate(137,158)"/>
<path d="M0 0 C3 1 3 1 3 1 Z " fill="#3C307B" transform="translate(461,154)"/>
<path d="M0 0 C3 1 3 1 3 1 Z " fill="#2E2465" transform="translate(439,154)"/>
<path d="M0 0 C3 1 3 1 3 1 Z " fill="#1F1C56" transform="translate(411,154)"/>
<path d="M0 0 C3 1 3 1 3 1 Z " fill="#4C3E9B" transform="translate(65,154)"/>
<path d="M0 0 C3 1 3 1 3 1 Z " fill="#5D538E" transform="translate(81,149)"/>
<path d="" fill="#877DA4" transform="translate(0,0)"/>
<path d="" fill="#453B76" transform="translate(0,0)"/>
<path d="" fill="#524E77" transform="translate(0,0)"/>
<path d="" fill="#504C70" transform="translate(0,0)"/>
<path d="" fill="#4D4E85" transform="translate(0,0)"/>
<path d="" fill="#494476" transform="translate(0,0)"/>
<path d="" fill="#453C7B" transform="translate(0,0)"/>
<path d="" fill="#5C538C" transform="translate(0,0)"/>
<path d="" fill="#534B80" transform="translate(0,0)"/>
<path d="" fill="#544693" transform="translate(0,0)"/>
<path d="M0 0 C0.66 0 1.32 0 2 0 C1.67 0.66 1.34 1.32 1 2 C0.67 1.34 0.34 0.68 0 0 Z " fill="#6A5F95" transform="translate(22,124)"/>
<path d="" fill="#3F307A" transform="translate(0,0)"/>
<path d="" fill="#8A80AB" transform="translate(0,0)"/>
<path d="" fill="#4D6E78" transform="translate(0,0)"/>
<path d="M0 0 C3 1 3 1 3 1 Z " fill="#4C4972" transform="translate(102,111)"/>
<path d="M0 0 C3 1 3 1 3 1 Z " fill="#564A7C" transform="translate(102,104)"/>
<path d="" fill="#666085" transform="translate(0,0)"/>
<path d="" fill="#453478" transform="translate(0,0)"/>
<path d="" fill="#3C327D" transform="translate(0,0)"/>
<path d="" fill="#3D3761" transform="translate(0,0)"/>
<path d="M0 0 C3 1 3 1 3 1 Z " fill="#524F82" transform="translate(149,80)"/>
<path d="" fill="#37316C" transform="translate(0,0)"/>
<path d="M0 0 C2 1 2 1 2 1 Z " fill="#736BA8" transform="translate(210,192)"/>
<path d="M0 0 C2 1 2 1 2 1 Z " fill="#706898" transform="translate(41,192)"/>
<path d="M0 0 C2 1 2 1 2 1 Z " fill="#666288" transform="translate(218,189)"/>
<path d="" fill="#2A205F" transform="translate(0,0)"/>
<path d="" fill="#534F64" transform="translate(0,0)"/>
<path d="" fill="#67628E" transform="translate(0,0)"/>
<path d="" fill="#67579C" transform="translate(0,0)"/>
<path d="" fill="#1D1357" transform="translate(0,0)"/>
<path d="M0 0 C2 1 2 1 2 1 Z " fill="#423B6E" transform="translate(395,181)"/>
<path d="M0 0 C2 1 2 1 2 1 Z " fill="#504B75" transform="translate(382,181)"/>
<path d="M0 0 C2 1 2 1 2 1 Z " fill="#4E4C83" transform="translate(208,174)"/>
<path d="M0 0 C2 1 2 1 2 1 Z " fill="#6F6B94" transform="translate(148,173)"/>
<path d="M0 0 C2 1 2 1 2 1 Z " fill="#6F6A94" transform="translate(126,173)"/>
<path d="M0 0 C2 1 2 1 2 1 Z " fill="#5D5689" transform="translate(122,172)"/>
<path d="M0 0 C2 1 2 1 2 1 Z " fill="#604575" transform="translate(39,172)"/>
<path d="" fill="#615D7A" transform="translate(0,0)"/>
<path d="M0 0 C2 1 2 1 2 1 Z " fill="#69697B" transform="translate(118,171)"/>
<path d="M0 0 C2 1 2 1 2 1 Z " fill="#4B4182" transform="translate(416,170)"/>
<path d="M0 0 C2 1 2 1 2 1 Z " fill="#47457B" transform="translate(219,170)"/>
<path d="" fill="#6150B1" transform="translate(0,0)"/>
<path d="M0 0 C2 1 2 1 2 1 Z " fill="#564F83" transform="translate(106,167)"/>
<path d="" fill="#685FA1" transform="translate(0,0)"/>
<path d="M0 0 C2 1 2 1 2 1 Z " fill="#6752A1" transform="translate(103,166)"/>
<path d="M0 0 C2 1 2 1 2 1 Z " fill="#524A7C" transform="translate(126,165)"/>
<path d="" fill="#66529A" transform="translate(0,0)"/>
<path d="M0 0 C2 1 2 1 2 1 Z " fill="#5D5685" transform="translate(123,164)"/>
<path d="M0 0 C2 1 2 1 2 1 Z " fill="#625C92" transform="translate(99,164)"/>
<path d="M0 0 C2 1 2 1 2 1 Z " fill="#4E4B84" transform="translate(75,164)"/>
<path d="M0 0 C2 1 2 1 2 1 Z " fill="#362D66" transform="translate(120,163)"/>
<path d="" fill="#5C5698" transform="translate(0,0)"/>
<path d="M0 0 C2 1 2 1 2 1 Z " fill="#62589F" transform="translate(94,162)"/>
<path d="M0 0 C2 1 2 1 2 1 Z " fill="#5F558C" transform="translate(81,162)"/>
<path d="M0 0 C2 1 2 1 2 1 Z " fill="#3D356D" transform="translate(91,161)"/>
<path d="" fill="#7A769F" transform="translate(0,0)"/>
<path d="" fill="#473D76" transform="translate(0,0)"/>
<path d="M0 0 C2 1 2 1 2 1 Z " fill="#4B4A7D" transform="translate(110,159)"/>
<path d="M0 0 C2 1 2 1 2 1 Z " fill="#353155" transform="translate(168,158)"/>
<path d="" fill="#6A6789" transform="translate(0,0)"/>
<path d="M0 0 C2 1 2 1 2 1 Z " fill="#63616F" transform="translate(156,157)"/>
<path d="M0 0 C2 1 2 1 2 1 Z " fill="#63539F" transform="translate(105,157)"/>
<path d="" fill="#615B9C" transform="translate(0,0)"/>
<path d="" fill="#54526C" transform="translate(0,0)"/>
<path d="M0 0 C2 1 2 1 2 1 Z " fill="#615E96" transform="translate(100,155)"/>
<path d="M0 0 C2 1 2 1 2 1 Z " fill="#30256B" transform="translate(249,154)"/>
<path d="M0 0 C2 1 2 1 2 1 Z " fill="#645C8B" transform="translate(86,150)"/>
<path d="" fill="#4E477B" transform="translate(0,0)"/>
<path d="" fill="#655F94" transform="translate(0,0)"/>
<path d="" fill="#6E6490" transform="translate(0,0)"/>
<path d="" fill="#54558E" transform="translate(0,0)"/>
<path d="" fill="#5E5585" transform="translate(0,0)"/>
<path d="" fill="#5C5872" transform="translate(0,0)"/>
<path d="" fill="#4E4879" transform="translate(0,0)"/>
<path d="" fill="#463A7C" transform="translate(0,0)"/>
<path d="" fill="#605B88" transform="translate(0,0)"/>
<path d="" fill="#504C78" transform="translate(0,0)"/>
<path d="" fill="#6F6A8E" transform="translate(0,0)"/>
<path d="" fill="#523F7C" transform="translate(0,0)"/>
<path d="" fill="#4E4782" transform="translate(0,0)"/>
<path d="" fill="#433385" transform="translate(0,0)"/>
<path d="" fill="#544A87" transform="translate(0,0)"/>
<path d="" fill="#463A78" transform="translate(0,0)"/>
<path d="M0 0 C2 1 2 1 2 1 Z " fill="#615A77" transform="translate(164,129)"/>
<path d="" fill="#5C47A0" transform="translate(0,0)"/>
<path d="" fill="#6E6393" transform="translate(0,0)"/>
<path d="M0 0 C2 1 2 1 2 1 Z " fill="#615689" transform="translate(148,123)"/>
<path d="" fill="#53498A" transform="translate(0,0)"/>
<path d="" fill="#474373" transform="translate(0,0)"/>
<path d="" fill="#120560" transform="translate(0,0)"/>
<path d="M0 0 C2 1 2 1 2 1 Z " fill="#494174" transform="translate(291,116)"/>
<path d="M0 0 C2 1 2 1 2 1 Z " fill="#292256" transform="translate(173,115)"/>
<path d="" fill="#664B83" transform="translate(0,0)"/>
<path d="M0 0 C2 1 2 1 2 1 Z " fill="#474577" transform="translate(162,113)"/>
<path d="M0 0 C2 1 2 1 2 1 Z " fill="#49427C" transform="translate(171,112)"/>
<path d="M0 0 C2 1 2 1 2 1 Z " fill="#48416C" transform="translate(134,109)"/>
<path d="M0 0 C2 1 2 1 2 1 Z " fill="#4F4684" transform="translate(98,109)"/>
<path d="" fill="#635792" transform="translate(0,0)"/>
<path d="M0 0 C2 1 2 1 2 1 Z " fill="#413C5D" transform="translate(137,108)"/>
<path d="M0 0 C2 1 2 1 2 1 Z " fill="#433F79" transform="translate(170,107)"/>
<path d="M0 0 C2 1 2 1 2 1 Z " fill="#463C81" transform="translate(139,107)"/>
<path d="" fill="#51458A" transform="translate(0,0)"/>
<path d="" fill="#2A2458" transform="translate(0,0)"/>
<path d="M0 0 C2 1 2 1 2 1 Z " fill="#373470" transform="translate(178,104)"/>
<path d="M0 0 C2 1 2 1 2 1 Z " fill="#454176" transform="translate(145,104)"/>
<path d="" fill="#4B4476" transform="translate(0,0)"/>
<path d="" fill="#4F4982" transform="translate(0,0)"/>
<path d="" fill="#262528" transform="translate(0,0)"/>
<path d="" fill="#4E3A6B" transform="translate(0,0)"/>
<path d="" fill="#545776" transform="translate(0,0)"/>
<path d="M0 0 C2 1 2 1 2 1 Z " fill="#4A478E" transform="translate(97,85)"/>
<path d="M0 0 C2 1 2 1 2 1 Z " fill="#3B3469" transform="translate(147,81)"/>
<path d="M0 0 C2 1 2 1 2 1 Z " fill="#4E4582" transform="translate(98,79)"/>
<path d="M0 0 C2 1 2 1 2 1 Z " fill="#4C4379" transform="translate(147,75)"/>
<path d="" fill="#3A3951" transform="translate(0,0)"/>
<path d="" fill="#1C1536" transform="translate(0,0)"/>
<path d="" fill="#332A61" transform="translate(0,0)"/>
<path d="" fill="#412D40" transform="translate(0,0)"/>
<path d="" fill="#2C2842" transform="translate(0,0)"/>
<path d="" fill="#443B72" transform="translate(0,0)"/>
<path d="" fill="#908AB1" transform="translate(0,0)"/>
<path d="" fill="#7E7A92" transform="translate(0,0)"/>
<path d="" fill="#554F6A" transform="translate(0,0)"/>
<path d="" fill="#423C1E" transform="translate(0,0)"/>
<path d="" fill="#6D669D" transform="translate(0,0)"/>
<path d="" fill="#422E67" transform="translate(0,0)"/>
<path d="" fill="#5A5A91" transform="translate(0,0)"/>
<path d="" fill="#393763" transform="translate(0,0)"/>
<path d="" fill="#413B63" transform="translate(0,0)"/>
<path d="" fill="#494D92" transform="translate(0,0)"/>
<path d="" fill="#464BC6" transform="translate(0,0)"/>
<path d="" fill="#4A457B" transform="translate(0,0)"/>
<path d="" fill="#4B3F71" transform="translate(0,0)"/>
<path d="" fill="#4C4872" transform="translate(0,0)"/>
<path d="" fill="#5D5C83" transform="translate(0,0)"/>
<path d="" fill="#584E2B" transform="translate(0,0)"/>
<path d="" fill="#605879" transform="translate(0,0)"/>
<path d="" fill="#5F5B9F" transform="translate(0,0)"/>
<path d="" fill="#44416F" transform="translate(0,0)"/>
<path d="" fill="#2E2278" transform="translate(0,0)"/>
<path d="" fill="#665584" transform="translate(0,0)"/>
<path d="" fill="#616753" transform="translate(0,0)"/>
<path d="" fill="#525166" transform="translate(0,0)"/>
<path d="" fill="#413F74" transform="translate(0,0)"/>
<path d="" fill="#574E95" transform="translate(0,0)"/>
<path d="" fill="#5D4A85" transform="translate(0,0)"/>
<path d="" fill="#6D677D" transform="translate(0,0)"/>
<path d="" fill="#4E4682" transform="translate(0,0)"/>
<path d="" fill="#47437B" transform="translate(0,0)"/>
<path d="" fill="#6F6A97" transform="translate(0,0)"/>
<path d="" fill="#464082" transform="translate(0,0)"/>
<path d="" fill="#53545F" transform="translate(0,0)"/>
<path d="" fill="#504685" transform="translate(0,0)"/>
<path d="" fill="#483870" transform="translate(0,0)"/>
<path d="" fill="#423C61" transform="translate(0,0)"/>
<path d="" fill="#696C84" transform="translate(0,0)"/>
<path d="" fill="#555194" transform="translate(0,0)"/>
<path d="" fill="#524E83" transform="translate(0,0)"/>
<path d="" fill="#51547A" transform="translate(0,0)"/>
<path d="" fill="#605B95" transform="translate(0,0)"/>
<path d="" fill="#4F487F" transform="translate(0,0)"/>
<path d="" fill="#3D3563" transform="translate(0,0)"/>
<path d="" fill="#494355" transform="translate(0,0)"/>
<path d="" fill="#403D5D" transform="translate(0,0)"/>
<path d="" fill="#6B629A" transform="translate(0,0)"/>
<path d="" fill="#4D445E" transform="translate(0,0)"/>
<path d="" fill="#6C6B70" transform="translate(0,0)"/>
<path d="" fill="#574892" transform="translate(0,0)"/>
<path d="" fill="#746B87" transform="translate(0,0)"/>
<path d="" fill="#383053" transform="translate(0,0)"/>
<path d="" fill="#4D3E71" transform="translate(0,0)"/>
<path d="" fill="#6C6290" transform="translate(0,0)"/>
<path d="" fill="#7064AC" transform="translate(0,0)"/>
<path d="" fill="#140C3A" transform="translate(0,0)"/>
<path d="" fill="#5B5860" transform="translate(0,0)"/>
<path d="" fill="#646368" transform="translate(0,0)"/>
<path d="" fill="#322D5A" transform="translate(0,0)"/>
<path d="" fill="#56518E" transform="translate(0,0)"/>
<path d="" fill="#40444C" transform="translate(0,0)"/>
<path d="" fill="#110637" transform="translate(0,0)"/>
<path d="" fill="#302B5C" transform="translate(0,0)"/>
<path d="" fill="#05002F" transform="translate(0,0)"/>
<path d="" fill="#50686E" transform="translate(0,0)"/>
<path d="" fill="#100B2D" transform="translate(0,0)"/>
<path d="" fill="#5E558F" transform="translate(0,0)"/>
<path d="" fill="#221D58" transform="translate(0,0)"/>
<path d="" fill="#494270" transform="translate(0,0)"/>
<path d="" fill="#3A3483" transform="translate(0,0)"/>
<path d="" fill="#564F88" transform="translate(0,0)"/>
<path d="" fill="#393473" transform="translate(0,0)"/>
<path d="" fill="#3A3560" transform="translate(0,0)"/>
<path d="" fill="#4E4B6B" transform="translate(0,0)"/>
<path d="" fill="#888596" transform="translate(0,0)"/>
<path d="" fill="#1C1147" transform="translate(0,0)"/>
<path d="" fill="#4C42A5" transform="translate(0,0)"/>
<path d="" fill="#3D3C5E" transform="translate(0,0)"/>
<path d="" fill="#50487B" transform="translate(0,0)"/>
<path d="" fill="#080042" transform="translate(0,0)"/>
<path d="" fill="#6358A9" transform="translate(0,0)"/>
<path d="" fill="#080022" transform="translate(0,0)"/>
<path d="" fill="#06002D" transform="translate(0,0)"/>
<path d="" fill="#452A7A" transform="translate(0,0)"/>
<path d="" fill="#553DA5" transform="translate(0,0)"/>
<path d="" fill="#523AB2" transform="translate(0,0)"/>
<path d="" fill="#625489" transform="translate(0,0)"/>
<path d="" fill="#635794" transform="translate(0,0)"/>
<path d="" fill="#393069" transform="translate(0,0)"/>
<path d="" fill="#463A82" transform="translate(0,0)"/>
<path d="" fill="#463BA5" transform="translate(0,0)"/>
<path d="" fill="#403B5C" transform="translate(0,0)"/>
<path d="" fill="#353447" transform="translate(0,0)"/>
<path d="" fill="#4A457B" transform="translate(0,0)"/>
<path d="" fill="#3C366C" transform="translate(0,0)"/>
<path d="" fill="#695DC1" transform="translate(0,0)"/>
<path d="" fill="#393359" transform="translate(0,0)"/>
<path d="" fill="#544487" transform="translate(0,0)"/>
<path d="" fill="#373445" transform="translate(0,0)"/>
<path d="" fill="#302A4C" transform="translate(0,0)"/>
<path d="" fill="#5E4DA7" transform="translate(0,0)"/>
<path d="" fill="#5E535D" transform="translate(0,0)"/>
<path d="" fill="#0A0059" transform="translate(0,0)"/>
<path d="" fill="#6B6781" transform="translate(0,0)"/>
<path d="" fill="#5A507F" transform="translate(0,0)"/>
<path d="" fill="#605270" transform="translate(0,0)"/>
<path d="" fill="#605B93" transform="translate(0,0)"/>
<path d="" fill="#454678" transform="translate(0,0)"/>
<path d="" fill="#6E689E" transform="translate(0,0)"/>
<path d="" fill="#2C2058" transform="translate(0,0)"/>
<path d="" fill="#3F1749" transform="translate(0,0)"/>
<path d="" fill="#50427B" transform="translate(0,0)"/>
<path d="" fill="#443978" transform="translate(0,0)"/>
<path d="" fill="#56408C" transform="translate(0,0)"/>
<path d="" fill="#504977" transform="translate(0,0)"/>
<path d="" fill="#4F4778" transform="translate(0,0)"/>
<path d="" fill="#574D97" transform="translate(0,0)"/>
<path d="" fill="#4B417D" transform="translate(0,0)"/>
<path d="" fill="#483F77" transform="translate(0,0)"/>
<path d="" fill="#565074" transform="translate(0,0)"/>
<path d="" fill="#1F1D42" transform="translate(0,0)"/>
<path d="" fill="#2D454F" transform="translate(0,0)"/>
<path d="" fill="#786B9F" transform="translate(0,0)"/>
<path d="" fill="#4D418B" transform="translate(0,0)"/>
<path d="" fill="#4B475B" transform="translate(0,0)"/>
<path d="" fill="#3E2F61" transform="translate(0,0)"/>
<path d="" fill="#7D7B99" transform="translate(0,0)"/>
<path d="" fill="#9687BC" transform="translate(0,0)"/>
<path d="" fill="#454B60" transform="translate(0,0)"/>
<path d="" fill="#463D74" transform="translate(0,0)"/>
<path d="" fill="#635C95" transform="translate(0,0)"/>
<path d="" fill="#1E114E" transform="translate(0,0)"/>
<path d="" fill="#6E6491" transform="translate(0,0)"/>
<path d="" fill="#554E83" transform="translate(0,0)"/>
<path d="" fill="#585471" transform="translate(0,0)"/>
<path d="" fill="#4C427C" transform="translate(0,0)"/>
<path d="" fill="#6F6891" transform="translate(0,0)"/>
<path d="" fill="#1C1C3A" transform="translate(0,0)"/>
<path d="" fill="#000C30" transform="translate(0,0)"/>
<path d="" fill="#7D7895" transform="translate(0,0)"/>
<path d="" fill="#381E4F" transform="translate(0,0)"/>
<path d="" fill="#39356B" transform="translate(0,0)"/>
<path d="" fill="#1F0F2B" transform="translate(0,0)"/>
<path d="" fill="#5D4970" transform="translate(0,0)"/>
<path d="" fill="#565366" transform="translate(0,0)"/>
<path d="" fill="#404B15" transform="translate(0,0)"/>
<path d="" fill="#463D72" transform="translate(0,0)"/>
<path d="" fill="#373845" transform="translate(0,0)"/>
<path d="" fill="#484660" transform="translate(0,0)"/>
<path d="" fill="#454378" transform="translate(0,0)"/>
<path d="" fill="#2B2848" transform="translate(0,0)"/>
<path d="" fill="#443674" transform="translate(0,0)"/>
<path d="" fill="#463F68" transform="translate(0,0)"/>
<path d="" fill="#4A4B6F" transform="translate(0,0)"/>
<path d="" fill="#3A3969" transform="translate(0,0)"/>
<path d="" fill="#14113E" transform="translate(0,0)"/>
<path d="" fill="#8B85B7" transform="translate(0,0)"/>
<path d="" fill="#3D265E" transform="translate(0,0)"/>
<path d="" fill="#35365D" transform="translate(0,0)"/>
<path d="" fill="#302950" transform="translate(0,0)"/>
<path d="" fill="#3E305D" transform="translate(0,0)"/>
<path d="" fill="#0E0C1A" transform="translate(0,0)"/>
<path d="" fill="#2A3554" transform="translate(0,0)"/>
<path d="" fill="#5D5A89" transform="translate(0,0)"/>
<path d="" fill="#554D60" transform="translate(0,0)"/>
<path d="" fill="#494161" transform="translate(0,0)"/>
<path d="" fill="#342860" transform="translate(0,0)"/>
<path d="" fill="#716D87" transform="translate(0,0)"/>
<path d="" fill="#413A68" transform="translate(0,0)"/>
<path d="" fill="#02000E" transform="translate(0,0)"/>
<path d="" fill="#1B1539" transform="translate(0,0)"/>
<path d="" fill="#0E000F" transform="translate(0,0)"/>
<path d="" fill="#4846A8" transform="translate(0,0)"/>
<path d="" fill="#06040E" transform="translate(0,0)"/>
<path d="" fill="#00040A" transform="translate(0,0)"/>
<path d="" fill="#746E77" transform="translate(0,0)"/>
<path d="" fill="#3D2D59" transform="translate(0,0)"/>
<path d="" fill="#01001F" transform="translate(0,0)"/>
<path d="" fill="#29243F" transform="translate(0,0)"/>
<path d="" fill="#1D1933" transform="translate(0,0)"/>
</svg>
